<?xml version="1.0" encoding="utf-8"?>
<!-- Generator: Adobe Illustrator 20.1.0, SVG Export Plug-In . SVG Version: 6.00 Build 0)  -->
<svg version="1.1" id="Capa_1" xmlns="http://www.w3.org/2000/svg" xmlns:xlink="http://www.w3.org/1999/xlink" x="0px" y="0px"
	 viewBox="0 0 595.3 841.9" style="enable-background:new 0 0 595.3 841.9;" xml:space="preserve">
<style type="text/css">
	.st0{fill:#98C253;}
</style>
<g>
	<path class="st0" d="M318,402.5v-5.6c0-2.8-2.2-5-5-5h-40c-2.8,0-5,2.2-5,5v22c0,2.6,1.9,4.7,4.5,4.9l3.8,9.8
		c1,2.6,3.9,3.9,6.5,2.9l23.5-9c-1.6,4.2-1.2,9,1.2,12.8l0.6,0.9v9.7c0,0.6,0.4,1,1,1h18c0.6,0,1-0.4,1-1v-33c0-3.5-1.4-6.8-3.8-9.2
		L318,402.5L318,402.5z M318,408.5l3,7.9c0.6,1.5-0.2,3.3-1.7,3.9l-1.7,0.7c0.3-0.6,0.4-1.3,0.4-2V408.5L318,408.5z M270,418.9v-22
		c0-1.7,1.3-3,3-3h40c1.7,0,3,1.3,3,3v6.4h0l0,0v15.6c0,0.2,0,0.3-0.1,0.5l-9.2-9.2c-2.1-2-5.3-2-7.4,0c-2.1,2-2.2,5.3-0.3,7.4
		l3.9,4.3h-30C271.3,421.9,270,420.5,270,418.9L270,418.9z M282.8,423.9l-7.1,2.7l-1.1-2.7H282.8L282.8,423.9z M282,434.6
		c-1.5,0.6-3.3-0.2-3.9-1.7l-1.7-4.4l11.9-4.6v0h16.5l1.3,1.4L282,434.6L282,434.6z M326,449.9h-16v-8h16V449.9L326,449.9z
		 M326,439.9h-16.4l-0.4-0.7c-2.4-3.9-2.5-8.8-0.3-12.8c0.2-0.4,0.2-0.9-0.1-1.2l-8.2-8.9c-1.2-1.3-1.2-3.4,0.2-4.7
		c1.3-1.3,3.4-1.2,4.7,0l15.9,15.9l1.4-1.4l-3.7-3.7l1-0.4c2.6-1,3.9-3.9,2.9-6.5l-3.4-8.8l3.2,3.2c2.1,2.1,3.2,4.9,3.2,7.8V439.9
		L326,439.9z"/>
	<path class="st0" d="M279.4,405.9c1.4,0,2.6-1.2,2.6-2.6v-4.8c0-1.4-1.2-2.6-2.6-2.6h-4.8c-1.4,0-2.6,1.2-2.6,2.6v4.8
		c0,1.4,1.2,2.6,2.6,2.6H279.4L279.4,405.9z M274,403.3v-1.4h2v-2h-2v-1.4c0-0.3,0.3-0.6,0.6-0.6h4.8c0.3,0,0.6,0.3,0.6,0.6v1.4h-2
		v2h2v1.4c0,0.3-0.3,0.6-0.6,0.6h-4.8C274.3,403.9,274,403.6,274,403.3L274,403.3z"/>
	<polygon class="st0" points="273,408.9 277,408.9 277,410.9 273,410.9 273,408.9 	"/>
	<polygon class="st0" points="273,414.9 277,414.9 277,416.9 273,416.9 273,414.9 	"/>
	<polygon class="st0" points="291,414.9 295,414.9 295,416.9 291,416.9 291,414.9 	"/>
	<polygon class="st0" points="279,408.9 283,408.9 283,410.9 279,410.9 279,408.9 	"/>
	<polygon class="st0" points="285,408.9 289,408.9 289,410.9 285,410.9 285,408.9 	"/>
	<polygon class="st0" points="291,408.9 295,408.9 295,410.9 291,410.9 291,408.9 	"/>
	<polygon class="st0" points="310,396.9 312,396.9 312,399.9 310,399.9 310,396.9 	"/>
	<polygon class="st0" points="306,396.9 308,396.9 308,399.9 306,399.9 306,396.9 	"/>
	<polygon class="st0" points="302,396.9 304,396.9 304,399.9 302,399.9 302,396.9 	"/>
	<polygon class="st0" points="298,396.9 300,396.9 300,399.9 298,399.9 298,396.9 	"/>
	<polygon class="st0" points="312,443.9 314,443.9 314,445.9 312,445.9 312,443.9 	"/>
</g>
</svg>
