<?xml version="1.0" encoding="utf-8"?>
<!-- Generator: Adobe Illustrator 20.1.0, SVG Export Plug-In . SVG Version: 6.00 Build 0)  -->
<svg version="1.1" id="Capa_1" xmlns="http://www.w3.org/2000/svg" xmlns:xlink="http://www.w3.org/1999/xlink" x="0px" y="0px"
	 viewBox="0 0 595.3 841.9" style="enable-background:new 0 0 595.3 841.9;" xml:space="preserve">
<style type="text/css">
	.st0{fill-rule:evenodd;clip-rule:evenodd;fill:#91B754;}
	.st1{fill:#FFFFFF;}
</style>
<g>
	<path class="st0" d="M327,420.9c0-16.6-13.4-30-30-30c-16.6,0-30,13.4-30,30c0,16.6,13.4,30,30,30C313.6,450.9,327,437.5,327,420.9
		L327,420.9z"/>
	<path class="st1" d="M307.1,411.1v-2.8c0-1.4-1.1-2.5-2.5-2.5h-20.3c-1.4,0-2.5,1.1-2.5,2.5v11.1c0,1.3,1,2.4,2.3,2.5l1.9,4.9
		c0.5,1.3,2,2,3.3,1.5l11.9-4.6c-0.8,2.1-0.6,4.6,0.6,6.5l0.3,0.5v4.9c0,0.3,0.2,0.5,0.5,0.5h9.1c0.3,0,0.5-0.2,0.5-0.5v-16.7
		c0-1.8-0.7-3.4-1.9-4.7L307.1,411.1L307.1,411.1z M307.1,414.1l1.5,4c0.3,0.8-0.1,1.7-0.9,2l-0.9,0.3c0.1-0.3,0.2-0.7,0.2-1V414.1
		L307.1,414.1z M282.8,419.4v-11.1c0-0.8,0.7-1.5,1.5-1.5h20.3c0.8,0,1.5,0.7,1.5,1.5v3.2h0l0,0v7.9c0,0.1,0,0.2,0,0.3l-4.6-4.6
		c-1-1-2.7-1-3.8,0c-1.1,1-1.1,2.7-0.1,3.8l2,2.2h-15.2C283.5,420.9,282.8,420.2,282.8,419.4L282.8,419.4z M289.3,421.9l-3.6,1.4
		l-0.5-1.4H289.3L289.3,421.9z M288.9,427.3c-0.8,0.3-1.7-0.1-2-0.9l-0.9-2.2l6-2.3v0h8.3l0.7,0.7L288.9,427.3L288.9,427.3z
		 M311.2,435.1h-8.1V431h8.1V435.1L311.2,435.1z M311.2,430h-8.3l-0.2-0.4c-1.2-2-1.3-4.5-0.1-6.5c0.1-0.2,0.1-0.4-0.1-0.6l-4.2-4.5
		c-0.6-0.7-0.6-1.7,0.1-2.4c0.7-0.6,1.7-0.6,2.4,0l8.1,8.1l0.7-0.7l-1.9-1.9l0.5-0.2c1.3-0.5,2-2,1.5-3.3l-1.7-4.5l1.6,1.6
		c1,1,1.6,2.5,1.6,4V430L311.2,430z"/>
	<path class="st1" d="M287.6,412.8c0.7,0,1.3-0.6,1.3-1.3V409c0-0.7-0.6-1.3-1.3-1.3h-2.4c-0.7,0-1.3,0.6-1.3,1.3v2.4
		c0,0.7,0.6,1.3,1.3,1.3H287.6L287.6,412.8z M284.8,411.5v-0.7h1v-1h-1V409c0-0.2,0.1-0.3,0.3-0.3h2.4c0.2,0,0.3,0.1,0.3,0.3v0.7h-1
		v1h1v0.7c0,0.2-0.1,0.3-0.3,0.3h-2.4C285,411.8,284.8,411.6,284.8,411.5L284.8,411.5z"/>
	<polygon class="st1" points="284.3,414.3 286.4,414.3 286.4,415.3 284.3,415.3 284.3,414.3 	"/>
	<polygon class="st1" points="284.3,417.3 286.4,417.3 286.4,418.4 284.3,418.4 284.3,417.3 	"/>
	<polygon class="st1" points="293.5,417.3 295.5,417.3 295.5,418.4 293.5,418.4 293.5,417.3 	"/>
	<polygon class="st1" points="287.4,414.3 289.4,414.3 289.4,415.3 287.4,415.3 287.4,414.3 	"/>
	<polygon class="st1" points="290.4,414.3 292.4,414.3 292.4,415.3 290.4,415.3 290.4,414.3 	"/>
	<polygon class="st1" points="293.5,414.3 295.5,414.3 295.5,415.3 293.5,415.3 293.5,414.3 	"/>
	<polygon class="st1" points="303.1,408.2 304.1,408.2 304.1,409.7 303.1,409.7 303.1,408.2 	"/>
	<polygon class="st1" points="301.1,408.2 302.1,408.2 302.1,409.7 301.1,409.7 301.1,408.2 	"/>
	<polygon class="st1" points="299,408.2 300,408.2 300,409.7 299,409.7 299,408.2 	"/>
	<polygon class="st1" points="297,408.2 298,408.2 298,409.7 297,409.7 297,408.2 	"/>
	<polygon class="st1" points="304.1,432 305.1,432 305.1,433 304.1,433 304.1,432 	"/>
</g>
</svg>
