<?xml version="1.0" encoding="utf-8"?>
<!-- Generator: Adobe Illustrator 20.1.0, SVG Export Plug-In . SVG Version: 6.00 Build 0)  -->
<svg version="1.1" id="Capa_1" xmlns="http://www.w3.org/2000/svg" xmlns:xlink="http://www.w3.org/1999/xlink" x="0px" y="0px"
	 viewBox="0 0 595.3 841.9" style="enable-background:new 0 0 595.3 841.9;" xml:space="preserve">
<style type="text/css">
	.st0{fill-rule:evenodd;clip-rule:evenodd;fill:#98C253;}
	.st1{fill:#FFB782;}
	.st2{fill:#DE4C3C;}
	.st3{fill:#7A4930;}
	.st4{fill:#4398D1;}
	.st5{fill:#3E8CC7;}
	.st6{fill:#5EB3D1;}
	.st7{fill:#88B337;}
	.st8{fill:#6B962A;}
	.st9{fill:#FDB62F;}
	.st10{fill:#FD7B2F;}
	.st11{fill:#F2A46F;}
</style>
<g>
	<path class="st0" d="M327,421.9c0-16.6-13.4-30-30-30c-16.6,0-30,13.4-30,30c0,16.6,13.4,30,30,30C313.6,451.9,327,438.5,327,421.9
		L327,421.9z"/>
	<path class="st1" d="M310.2,415.4l-5.4-5.4v21.7h7.2v-11.9C312,418.2,311.4,416.6,310.2,415.4L310.2,415.4z"/>
	<path class="st2" d="M286.2,427.8l-4.1-10.6c-0.4-1.1,0.1-2.3,1.2-2.7l19.3-7.4c1.1-0.4,2.3,0.1,2.7,1.2l4.1,10.6
		c0.4,1.1-0.1,2.3-1.2,2.7l-19.3,7.4C287.8,429.4,286.6,428.8,286.2,427.8L286.2,427.8z"/>
	<polygon class="st3" points="306.8,412 283.6,421 285.2,425 308.3,416 306.8,412 	"/>
	<path class="st4" d="M282,420.3v-11.4c0-1.1,0.9-2.1,2.1-2.1h20.7c1.1,0,2.1,0.9,2.1,2.1v11.4c0,1.1-0.9,2.1-2.1,2.1h-20.7
		C282.9,422.4,282,421.5,282,420.3L282,420.3z"/>
	<path class="st5" d="M304.8,406.9h-2.2L287,422.4h17.7c1.1,0,2.1-0.9,2.1-2.1v-11.4C306.8,407.8,305.9,406.9,304.8,406.9
		L304.8,406.9z"/>
	<polygon class="st6" points="284.1,415.2 286.1,415.2 286.1,416.2 284.1,416.2 284.1,415.2 	"/>
	<polygon class="st6" points="284.1,418.3 286.1,418.3 286.1,419.3 284.1,419.3 284.1,418.3 	"/>
	<polygon class="st6" points="293.4,418.3 295.4,418.3 295.4,419.3 293.4,419.3 293.4,418.3 	"/>
	<polygon class="st6" points="287.2,415.2 289.2,415.2 289.2,416.2 287.2,416.2 287.2,415.2 	"/>
	<polygon class="st6" points="290.3,415.2 292.3,415.2 292.3,416.2 290.3,416.2 290.3,415.2 	"/>
	<polygon class="st6" points="293.4,415.2 295.4,415.2 295.4,416.2 293.4,416.2 293.4,415.2 	"/>
	<polygon class="st6" points="303.2,408.9 304.2,408.9 304.2,410.5 303.2,410.5 303.2,408.9 	"/>
	<polygon class="st6" points="301.1,408.9 302.2,408.9 302.2,410.5 301.1,410.5 301.1,408.9 	"/>
	<polygon class="st6" points="299.1,408.9 300.1,408.9 300.1,410.5 299.1,410.5 299.1,408.9 	"/>
	<polygon class="st6" points="297,408.9 298,408.9 298,410.5 297,410.5 297,408.9 	"/>
	<polygon class="st7" points="302.7,431.7 312,431.7 312,436.9 302.7,436.9 302.7,431.7 	"/>
	<path class="st1" d="M301.2,416.2c-0.9-0.9-2.3-0.9-3.2,0c-0.8,0.8-0.9,2.2-0.1,3.1l4.2,4.6c-1.3,2.2-1.2,5,0.1,7.2l0.4,0.6h6.7
		v-7.2L301.2,416.2L301.2,416.2z"/>
	<polygon class="st8" points="304.2,433.3 305.3,433.3 305.3,434.3 304.2,434.3 304.2,433.3 	"/>
	<path class="st9" d="M284.1,412.3v-2.5c0-0.5,0.4-0.8,0.8-0.8h2.5c0.5,0,0.8,0.4,0.8,0.8v2.5c0,0.5-0.4,0.8-0.8,0.8h-2.5
		C284.4,413.1,284.1,412.7,284.1,412.3L284.1,412.3z"/>
	<polygon class="st10" points="284.1,410.5 285.6,410.5 285.6,411.5 284.1,411.5 284.1,410.5 	"/>
	<polygon class="st10" points="286.6,410.5 288.2,410.5 288.2,411.5 286.6,411.5 286.6,410.5 	"/>
	<path class="st11" d="M308.9,424.5c-0.1,0-0.3-0.1-0.4-0.2l-2.1-2.1c-0.2-0.2-0.2-0.5,0-0.7c0.2-0.2,0.5-0.2,0.7,0l2.1,2.1
		c0.2,0.2,0.2,0.5,0,0.7C309.2,424.4,309,424.5,308.9,424.5L308.9,424.5z"/>
</g>
</svg>
