<?xml version="1.0" encoding="utf-8"?>
<!-- Generator: Adobe Illustrator 20.1.0, SVG Export Plug-In . SVG Version: 6.00 Build 0)  -->
<svg version="1.1" id="Capa_1" xmlns="http://www.w3.org/2000/svg" xmlns:xlink="http://www.w3.org/1999/xlink" x="0px" y="0px"
	 viewBox="0 0 595.3 841.9" style="enable-background:new 0 0 595.3 841.9;" xml:space="preserve">
<style type="text/css">
	.st0{fill-rule:evenodd;clip-rule:evenodd;fill:#717D8A;}
	.st1{fill-rule:evenodd;clip-rule:evenodd;fill:#FFFFFF;}
</style>
<g>
	<path class="st0" d="M328,421.9c0-16.6-13.4-30-30-30c-16.6,0-30,13.4-30,30s13.4,30,30,30C314.6,451.9,328,438.5,328,421.9
		L328,421.9z"/>
	<path class="st1" d="M309.8,407.9C309.8,407.9,309.8,407.9,309.8,407.9h-7v-1.6c0-0.3-0.2-0.5-0.5-0.5l0,0h-8.6
		c-0.3,0-0.5,0.2-0.5,0.5v0v1.6h-7c-0.3,0-0.5,0.2-0.5,0.5c0,0,0,0,0,0v29c0,0.3,0.2,0.5,0.5,0.5c0,0,0,0,0,0h23.6
		c0.3,0,0.5-0.2,0.5-0.5c0,0,0,0,0,0l0-29C310.3,408.2,310.1,407.9,309.8,407.9L309.8,407.9z M294.2,406.9h7.5v3.2h-7.5V406.9
		L294.2,406.9z M309.3,436.9h-22.5V409h6.4v1.6c0,0.3,0.2,0.5,0.5,0.5l0,0h8.6c0.3,0,0.5-0.2,0.5-0.5v0V409h6.4V436.9L309.3,436.9z"
		/>
	<polygon class="st1" points="287.8,431.5 299.6,431.5 299.6,430.5 287.8,430.5 287.8,431.5 	"/>
	<polygon class="st1" points="300.7,431.5 308.2,431.5 308.2,430.5 300.7,430.5 300.7,431.5 	"/>
	<polygon class="st1" points="287.8,433.7 308.2,433.7 308.2,432.6 287.8,432.6 287.8,433.7 	"/>
	<polygon class="st1" points="287.8,435.8 296.4,435.8 296.4,434.8 287.8,434.8 287.8,435.8 	"/>
	<polygon class="st1" points="297.5,435.8 308.2,435.8 308.2,434.8 297.5,434.8 297.5,435.8 	"/>
	<path class="st1" d="M291.6,421.4L291.6,421.4h-3.2c-0.3,0-0.5,0.2-0.5,0.5v0v7c0,0.3,0.2,0.5,0.5,0.5h0h3.2c0.3,0,0.5-0.2,0.5-0.5
		v0v-7C292.1,421.6,291.9,421.4,291.6,421.4L291.6,421.4z M291,428.3h-2.1v-5.9h2.1V428.3L291,428.3z"/>
	<path class="st1" d="M296.9,419.2L296.9,419.2h-3.2c-0.3,0-0.5,0.2-0.5,0.5l0,0v9.1c0,0.3,0.2,0.5,0.5,0.5l0,0h3.2
		c0.3,0,0.5-0.2,0.5-0.5v0v-9.1C297.5,419.4,297.2,419.2,296.9,419.2L296.9,419.2z M296.4,428.3h-2.1v-8h2.1V428.3L296.4,428.3z"/>
	<path class="st1" d="M302.3,417.1L302.3,417.1h-3.2c-0.3,0-0.5,0.2-0.5,0.5v0v11.3c0,0.3,0.2,0.5,0.5,0.5c0,0,0,0,0,0h3.2
		c0.3,0,0.5-0.2,0.5-0.5v0v-11.3C302.8,417.3,302.6,417.1,302.3,417.1L302.3,417.1z M301.8,428.3h-2.1v-10.2h2.1V428.3L301.8,428.3z
		"/>
	<path class="st1" d="M307.7,414.9L307.7,414.9h-3.2c-0.3,0-0.5,0.2-0.5,0.5c0,0,0,0,0,0v13.4c0,0.3,0.2,0.5,0.5,0.5l0,0h3.2
		c0.3,0,0.5-0.2,0.5-0.5v0v-13.4C308.2,415.2,308,414.9,307.7,414.9L307.7,414.9z M307.1,428.3H305V416h2.1V428.3L307.1,428.3z"/>
	<path class="st1" d="M307.6,411.2l-5.4,1.1c-0.1,0-0.1,0-0.2,0.1l-4.7,3.1h-4.7c-0.1,0-0.2,0-0.3,0.1l-4.3,2.7l0.6,0.9l4.2-2.6h4.7
		c0.1,0,0.2,0,0.3-0.1l4.7-3.2l5.3-1.1L307.6,411.2L307.6,411.2z"/>
</g>
</svg>
