<?xml version="1.0" encoding="utf-8"?>
<!-- Generator: Adobe Illustrator 20.1.0, SVG Export Plug-In . SVG Version: 6.00 Build 0)  -->
<svg version="1.1" id="Capa_1" xmlns="http://www.w3.org/2000/svg" xmlns:xlink="http://www.w3.org/1999/xlink" x="0px" y="0px"
	 viewBox="0 0 595.3 841.9" style="enable-background:new 0 0 595.3 841.9;" xml:space="preserve">
<style type="text/css">
	.st0{fill-rule:evenodd;clip-rule:evenodd;fill:#98C253;}
	.st1{fill-rule:evenodd;clip-rule:evenodd;fill:#8FE5DA;}
	.st2{fill-rule:evenodd;clip-rule:evenodd;fill:#589CED;}
	.st3{fill-rule:evenodd;clip-rule:evenodd;fill:#EA7180;}
	.st4{fill-rule:evenodd;clip-rule:evenodd;fill:#EFC929;}
	.st5{fill-rule:evenodd;clip-rule:evenodd;fill:#F4A55D;}
	.st6{fill-rule:evenodd;clip-rule:evenodd;fill:#F9BDEE;}
</style>
<g>
	<path class="st0" d="M328,421.9c0-16.6-13.4-30-30-30c-16.6,0-30,13.4-30,30c0,16.6,13.4,30,30,30C314.6,451.9,328,438.5,328,421.9
		L328,421.9z"/>
	<polygon class="st1" points="285.8,407.8 310.2,407.8 310.2,438.2 285.8,438.2 285.8,407.8 	"/>
	<polygon class="st2" points="286.9,433.2 308,433.2 308,434.3 286.9,434.3 286.9,433.2 	"/>
	<polygon class="st3" points="304.1,415.5 307.4,415.5 307.4,429.4 304.1,429.4 304.1,415.5 	"/>
	<polygon class="st3" points="293,405.6 301.9,405.6 301.9,410.5 293,410.5 293,405.6 	"/>
	<polygon class="st2" points="286.9,431 299.1,431 299.1,432.1 286.9,432.1 286.9,431 	"/>
	<polygon class="st2" points="300.2,431 308,431 308,432.1 300.2,432.1 300.2,431 	"/>
	<polygon class="st2" points="286.9,435.5 295.8,435.5 295.8,436.6 286.9,436.6 286.9,435.5 	"/>
	<polygon class="st2" points="296.9,435.5 308,435.5 308,436.6 296.9,436.6 296.9,435.5 	"/>
	<polygon class="st4" points="287.5,422.2 290.8,422.2 290.8,429.4 287.5,429.4 287.5,422.2 	"/>
	<polygon class="st5" points="293,420 296.3,420 296.3,429.4 293,429.4 293,420 	"/>
	<polygon class="st6" points="298.6,417.7 301.9,417.7 301.9,429.4 298.6,429.4 298.6,417.7 	"/>
	<path class="st2" d="M287.7,419.4l-0.4-1l3.9-1.7c0,0,0,0,0.1,0l5.5-1.7l5-2.2l5.6-2.2l0.4,1l-5.5,2.2l-5,2.2c0,0,0,0-0.1,0
		l-5.5,1.7L287.7,419.4L287.7,419.4z"/>
</g>
</svg>
