<?xml version="1.0" encoding="utf-8"?>
<!-- Generator: Adobe Illustrator 20.1.0, SVG Export Plug-In . SVG Version: 6.00 Build 0)  -->
<svg version="1.1" id="Capa_1" xmlns="http://www.w3.org/2000/svg" xmlns:xlink="http://www.w3.org/1999/xlink" x="0px" y="0px"
	 viewBox="0 0 595.3 841.9" style="enable-background:new 0 0 595.3 841.9;" xml:space="preserve">
<style type="text/css">
	.st0{fill:#FFB782;}
	.st1{fill:#DE4C3C;}
	.st2{fill:#7A4930;}
	.st3{fill:#4398D1;}
	.st4{fill:#3E8CC7;}
	.st5{fill:#5EB3D1;}
	.st6{fill:#88B337;}
	.st7{fill:#6B962A;}
	.st8{fill:#FDB62F;}
	.st9{fill:#FD7B2F;}
	.st10{fill:#F2A46F;}
</style>
<g>
	<path class="st0" d="M324.3,407.9l-10.8-10.8v43.4H328v-23.8C328,413.4,326.7,410.3,324.3,407.9L324.3,407.9z"/>
	<path class="st1" d="M276.5,432.6l-8.2-21.2c-0.8-2.1,0.2-4.5,2.4-5.3l38.6-14.9c2.1-0.8,4.5,0.2,5.3,2.4l8.2,21.2
		c0.8,2.1-0.2,4.5-2.4,5.3L281.8,435C279.7,435.8,277.3,434.8,276.5,432.6L276.5,432.6z"/>
	<polygon class="st2" points="317.6,401.2 271.3,419.1 274.3,427.1 320.6,409.2 317.6,401.2 	"/>
	<path class="st3" d="M268,417.8V395c0-2.3,1.9-4.1,4.1-4.1h41.4c2.3,0,4.1,1.9,4.1,4.1v22.8c0,2.3-1.9,4.1-4.1,4.1h-41.4
		C269.9,421.9,268,420.1,268,417.8L268,417.8z"/>
	<path class="st4" d="M313.5,390.9h-4.4l-31,31h35.4c2.3,0,4.1-1.9,4.1-4.1V395C317.7,392.7,315.8,390.9,313.5,390.9L313.5,390.9z"
		/>
	<polygon class="st5" points="272.1,407.4 276.3,407.4 276.3,409.5 272.1,409.5 272.1,407.4 	"/>
	<polygon class="st5" points="272.1,413.6 276.3,413.6 276.3,415.7 272.1,415.7 272.1,413.6 	"/>
	<polygon class="st5" points="290.8,413.6 294.9,413.6 294.9,415.7 290.8,415.7 290.8,413.6 	"/>
	<polygon class="st5" points="278.3,407.4 282.5,407.4 282.5,409.5 278.3,409.5 278.3,407.4 	"/>
	<polygon class="st5" points="284.6,407.4 288.7,407.4 288.7,409.5 284.6,409.5 284.6,407.4 	"/>
	<polygon class="st5" points="290.8,407.4 294.9,407.4 294.9,409.5 290.8,409.5 290.8,407.4 	"/>
	<polygon class="st5" points="310.4,395 312.5,395 312.5,398.1 310.4,398.1 310.4,395 	"/>
	<polygon class="st5" points="306.3,395 308.3,395 308.3,398.1 306.3,398.1 306.3,395 	"/>
	<polygon class="st5" points="302.1,395 304.2,395 304.2,398.1 302.1,398.1 302.1,395 	"/>
	<polygon class="st5" points="298,395 300.1,395 300.1,398.1 298,398.1 298,395 	"/>
	<polygon class="st6" points="309.4,440.5 328,440.5 328,450.9 309.4,450.9 309.4,440.5 	"/>
	<path class="st0" d="M306.3,409.6c-1.8-1.7-4.6-1.7-6.3,0c-1.7,1.7-1.7,4.4-0.1,6.2l8.5,9.2c-2.5,4.5-2.4,10,0.3,14.3l0.8,1.2h13.4
		v-14.5L306.3,409.6L306.3,409.6z"/>
	<polygon class="st7" points="312.5,443.6 314.6,443.6 314.6,445.7 312.5,445.7 312.5,443.6 	"/>
	<path class="st8" d="M272.1,401.6v-5c0-0.9,0.7-1.7,1.7-1.7h5c0.9,0,1.7,0.7,1.7,1.7v5c0,0.9-0.7,1.7-1.7,1.7h-5
		C272.9,403.3,272.1,402.6,272.1,401.6L272.1,401.6z"/>
	<polygon class="st9" points="272.1,398.1 275.2,398.1 275.2,400.2 272.1,400.2 272.1,398.1 	"/>
	<polygon class="st9" points="277.3,398.1 280.4,398.1 280.4,400.2 277.3,400.2 277.3,398.1 	"/>
	<path class="st10" d="M321.8,426.1c-0.3,0-0.5-0.1-0.7-0.3l-4.1-4.1c-0.4-0.4-0.4-1.1,0-1.5c0.4-0.4,1-0.4,1.4,0l4.1,4.1
		c0.4,0.4,0.4,1.1,0,1.5C322.3,426,322.1,426.1,321.8,426.1L321.8,426.1z"/>
</g>
</svg>
