<?xml version="1.0" encoding="utf-8"?>
<!-- Generator: Adobe Illustrator 20.1.0, SVG Export Plug-In . SVG Version: 6.00 Build 0)  -->
<svg version="1.1" id="Capa_1" xmlns="http://www.w3.org/2000/svg" xmlns:xlink="http://www.w3.org/1999/xlink" x="0px" y="0px"
	 viewBox="0 0 595.3 841.9" style="enable-background:new 0 0 595.3 841.9;" xml:space="preserve">
<style type="text/css">
	.st0{fill-rule:evenodd;clip-rule:evenodd;fill:#98C253;}
	.st1{fill-rule:evenodd;clip-rule:evenodd;fill:#2276BB;}
	.st2{fill-rule:evenodd;clip-rule:evenodd;fill:#88D0EF;}
	.st3{fill-rule:evenodd;clip-rule:evenodd;fill:#D2B894;}
	.st4{fill-rule:evenodd;clip-rule:evenodd;fill:#EC7422;}
	.st5{fill-rule:evenodd;clip-rule:evenodd;fill:#3A5565;}
	.st6{fill-rule:evenodd;clip-rule:evenodd;fill:#162730;}
	.st7{fill-rule:evenodd;clip-rule:evenodd;fill:#FFBF41;}
	.st8{fill-rule:evenodd;clip-rule:evenodd;fill:#D2D7D6;}
</style>
<g>
	<path class="st0" d="M328,421.9c0-16.6-13.4-30-30-30c-16.6,0-30,13.4-30,30c0,16.6,13.4,30,30,30C314.6,451.9,328,438.5,328,421.9
		L328,421.9z"/>
	<path class="st1" d="M302.1,409.2h-21.2v-2.4c0-1.3,1.1-2.4,2.4-2.4h18.7V409.2L302.1,409.2z"/>
	<path class="st2" d="M309.9,439.4c-1.7,0-3-1.4-3-3v-29.6c0-1.3-1.1-2.4-2.4-2.4h-21.2c1.3,0,2.4,1.1,2.4,2.4v29.6c0,1.7,1.4,3,3,3
		H309.9L309.9,439.4z"/>
	<path class="st3" d="M314.5,409.2c-0.8-0.8-2.2-0.8-3,0c0,0,0,0,0,0l-13,13l-1.8,4.8l4.8-1.8l13-13
		C315.3,411.4,315.3,410.1,314.5,409.2C314.5,409.2,314.5,409.2,314.5,409.2L314.5,409.2L314.5,409.2z"/>
	<path class="st4" d="M298.4,422.2l13-13c0.8-0.8,2.2-0.8,3,0v0c0.8,0.8,0.8,2.2,0,3c0,0,0,0,0,0l-13,13L298.4,422.2L298.4,422.2z"
		/>
	<path class="st5" d="M314.5,409.2c-0.8-0.8-2.2-0.8-3,0c0,0,0,0,0,0l-1.8,1.8l2.9,3.1l1.9-1.9C315.3,411.4,315.3,410.1,314.5,409.2
		C314.5,409.2,314.5,409.2,314.5,409.2L314.5,409.2L314.5,409.2z"/>
	<path class="st1" d="M288.8,439.4c1.7,0,3-1.4,3-3v-1.8h21.2v1.8c0,1.7-1.4,3-3,3H288.8L288.8,439.4z"/>
	<polygon class="st6" points="288.8,430.4 293,430.4 293,431.6 288.8,431.6 288.8,430.4 	"/>
	<polygon class="st6" points="288.8,425.5 294.8,425.5 294.8,426.7 288.8,426.7 288.8,425.5 	"/>
	<polygon class="st6" points="288.8,420.7 294.2,420.7 294.2,421.9 288.8,421.9 288.8,420.7 	"/>
	<polygon class="st6" points="291.2,415.8 300.9,415.8 300.9,417.1 291.2,417.1 291.2,415.8 	"/>
	<polygon class="st6" points="295.4,420.7 296.6,420.7 296.6,421.9 295.4,421.9 295.4,420.7 	"/>
	<polygon class="st6" points="288.8,415.8 290,415.8 290,417.1 288.8,417.1 288.8,415.8 	"/>
	<polygon class="st6" points="301.5,430.4 302.7,430.4 302.7,431.6 301.5,431.6 301.5,430.4 	"/>
	<polygon class="st6" points="294.2,430.4 300.3,430.4 300.3,431.6 294.2,431.6 294.2,430.4 	"/>
	<polygon class="st7" points="296,406.2 297.2,406.2 297.2,407.4 296,407.4 296,406.2 	"/>
	<polygon class="st7" points="296,412.2 297.2,412.2 297.2,413.4 296,413.4 296,412.2 	"/>
	<polygon class="st7" points="293.6,407.7 294.5,406.8 295.3,407.7 294.5,408.5 293.6,407.7 	"/>
	<polygon class="st7" points="297.9,411.9 298.8,411.1 299.6,411.9 298.8,412.8 297.9,411.9 	"/>
	<polygon class="st7" points="293,409.2 294.2,409.2 294.2,410.4 293,410.4 293,409.2 	"/>
	<polygon class="st7" points="299,409.2 300.3,409.2 300.3,410.4 299,410.4 299,409.2 	"/>
	<polygon class="st7" points="293.6,411.9 294.5,411.1 295.3,411.9 294.5,412.8 293.6,411.9 	"/>
	<polygon class="st7" points="297.9,407.7 298.8,406.8 299.6,407.7 298.8,408.5 297.9,407.7 	"/>
	<polygon class="st6" points="296.6,427 299.5,426 297.7,424.1 296.6,427 	"/>
	<polygon class="st7" points="299.6,423.3 309.7,413.2 310.5,414 300.4,424.2 299.6,423.3 	"/>
	<polygon class="st8" points="308.4,412.2 310.2,410.4 313.3,413.4 311.4,415.3 308.4,412.2 	"/>
</g>
</svg>
