<?xml version="1.0" encoding="utf-8"?>
<!-- Generator: Adobe Illustrator 20.1.0, SVG Export Plug-In . SVG Version: 6.00 Build 0)  -->
<svg version="1.1" id="Capa_1" xmlns="http://www.w3.org/2000/svg" xmlns:xlink="http://www.w3.org/1999/xlink" x="0px" y="0px"
	 viewBox="0 0 595.3 841.9" style="enable-background:new 0 0 595.3 841.9;" xml:space="preserve">
<style type="text/css">
	.st0{fill-rule:evenodd;clip-rule:evenodd;fill:#73808D;}
</style>
<g>
	<path class="st0" d="M319,395.9C319,395.9,319,395.9,319,395.9h-13v-3c0-0.6-0.4-1-1-1c0,0,0,0,0,0h-16c-0.6,0-1,0.4-1,1
		c0,0,0,0,0,0v3h-13c-0.6,0-1,0.4-1,1c0,0,0,0,0,0v54c0,0.6,0.4,1,1,1c0,0,0,0,0,0h44c0.6,0,1-0.4,1-1c0,0,0,0,0,0v-54
		C320,396.3,319.6,395.9,319,395.9L319,395.9z M290,393.9h14v6h-14V393.9L290,393.9z M318,449.9h-42v-52h12v3c0,0.6,0.4,1,1,1
		c0,0,0,0,0,0h16c0.6,0,1-0.4,1-1c0,0,0,0,0,0v-3h12V449.9L318,449.9z"/>
	<polygon class="st0" points="278,439.9 300,439.9 300,437.9 278,437.9 278,439.9 	"/>
	<polygon class="st0" points="302,439.9 316,439.9 316,437.9 302,437.9 302,439.9 	"/>
	<polygon class="st0" points="278,443.9 316,443.9 316,441.9 278,441.9 278,443.9 	"/>
	<polygon class="st0" points="278,447.9 294,447.9 294,445.9 278,445.9 278,447.9 	"/>
	<polygon class="st0" points="296,447.9 316,447.9 316,445.9 296,445.9 296,447.9 	"/>
	<path class="st0" d="M285,420.9L285,420.9h-6c-0.6,0-1,0.4-1,1c0,0,0,0,0,0v13c0,0.6,0.4,1,1,1c0,0,0,0,0,0h6c0.6,0,1-0.4,1-1
		c0,0,0,0,0,0v-13C286,421.3,285.6,420.9,285,420.9L285,420.9z M284,433.9h-4v-11h4V433.9L284,433.9z"/>
	<path class="st0" d="M295,416.9C295,416.9,295,416.9,295,416.9h-6c-0.6,0-1,0.4-1,1c0,0,0,0,0,0v17c0,0.6,0.4,1,1,1c0,0,0,0,0,0h6
		c0.6,0,1-0.4,1-1c0,0,0,0,0,0v-17C296,417.3,295.6,416.9,295,416.9L295,416.9z M294,433.9h-4v-15h4V433.9L294,433.9z"/>
	<path class="st0" d="M305,412.9C305,412.9,305,412.9,305,412.9h-6c-0.6,0-1,0.4-1,1c0,0,0,0,0,0v21c0,0.6,0.4,1,1,1c0,0,0,0,0,0h6
		c0.6,0,1-0.4,1-1c0,0,0,0,0,0v-21C306,413.3,305.6,412.9,305,412.9L305,412.9z M304,433.9h-4v-19h4V433.9L304,433.9z"/>
	<path class="st0" d="M315,408.9C315,408.9,315,408.9,315,408.9h-6c-0.6,0-1,0.4-1,1c0,0,0,0,0,0v25c0,0.6,0.4,1,1,1l0,0h6
		c0.6,0,1-0.4,1-1c0,0,0,0,0,0v-25C316,409.3,315.6,408.9,315,408.9L315,408.9z M314,433.9h-4v-23h4V433.9L314,433.9z"/>
	<path class="st0" d="M314.8,401.9l-10,2c-0.1,0-0.3,0.1-0.4,0.1l-8.7,5.8H287c-0.2,0-0.4,0.1-0.5,0.2l-8,5l1.1,1.7l7.8-4.8h8.7
		c0.2,0,0.4-0.1,0.6-0.2l8.8-5.9l9.8-2L314.8,401.9L314.8,401.9z"/>
</g>
</svg>
