<?xml version="1.0" encoding="utf-8"?>
<!-- Generator: Adobe Illustrator 20.1.0, SVG Export Plug-In . SVG Version: 6.00 Build 0)  -->
<svg version="1.1" id="Capa_1" xmlns="http://www.w3.org/2000/svg" xmlns:xlink="http://www.w3.org/1999/xlink" x="0px" y="0px"
	 viewBox="0 0 595.3 841.9" style="enable-background:new 0 0 595.3 841.9;" xml:space="preserve">
<style type="text/css">
	.st0{fill-rule:evenodd;clip-rule:evenodd;fill:#91B754;}
	.st1{fill-rule:evenodd;clip-rule:evenodd;fill:#FFFFFF;}
</style>
<g>
	<path class="st0" d="M328,420.9c0-16.6-13.4-30-30-30s-30,13.4-30,30c0,16.6,13.4,30,30,30S328,437.5,328,420.9L328,420.9z"/>
	<path class="st1" d="M307.8,419c-1.2,0-2.2,0.7-2.5,1.8c-0.2,0.1-0.5,0.2-0.7,0.4c-0.3,0.3-0.5,0.8-0.5,1.3c0,0,0,0,0,0v5.7
		c-0.7-0.4-0.9-0.5-3.9-1.8V425c0.8-0.4,1.5-0.9,2.2-1.5c1.5-1.5,2.3-3.5,2.3-5.7v-1.4c0.4-0.4,0.7-1,0.7-1.6v-0.2
		c0.2-0.1,0.4-0.4,0.4-0.7v-2.4c0-0.7-0.6-1.3-1.3-1.3v-0.2c0-4.3-3.5-7.8-7.8-7.8c-2.2,0-4.2,0.9-5.7,2.5c-0.2,0.2-0.2,0.6,0,0.8
		c0.2,0.2,0.6,0.2,0.8,0c0.2-0.3,0.5-0.5,0.8-0.7l0.7,3.6c0.1,0.3,0.3,0.5,0.6,0.4c0.3-0.1,0.5-0.3,0.4-0.6l-0.8-4
		c1-0.5,2-0.8,3.1-0.8c1.1,0,2.2,0.3,3.1,0.8l-0.7,4c-0.1,0.3,0.2,0.6,0.5,0.6c0.3,0,0.5-0.2,0.5-0.4l0.7-3.5
		c1.6,1.2,2.6,3.2,2.6,5.3v0.2h-1.7c-0.3,0-0.5,0.2-0.5,0.5c0,0.3,0.2,0.5,0.5,0.5h2.8c0.1,0,0.2,0.1,0.2,0.2v2h-16v-2
		c0-0.1,0.1-0.2,0.2-0.2h2.8c0.3,0,0.5-0.2,0.5-0.5c0-0.3-0.2-0.5-0.5-0.5h-1.7v-0.2c0-1,0.2-2,0.7-2.9c0.1-0.3,0-0.6-0.3-0.7
		c-0.3-0.1-0.6,0-0.7,0.3c-0.5,1.1-0.8,2.2-0.8,3.4v0.2c-0.7,0-1.3,0.6-1.3,1.3v2.4c0,0.3,0.2,0.6,0.4,0.7v0.2
		c0,0.6,0.2,1.2,0.7,1.6v1.4c0,3.2,1.8,5.9,4.5,7.2v1.5c-0.6,0.3-1,0.5-1.4,0.6c-0.6,0.3-1,0.4-1.3,0.6l-0.1,0
		c-0.1,0-0.2,0.1-0.3,0.1c-0.1,0.1-0.2,0.1-0.4,0.2c0,0,0,0,0,0c0,0,0,0,0,0c-2.5,1.4-4,4.1-4,6.9v3.7c0,0.5,0.4,0.8,0.8,0.8h23.5
		c0.3,0,0.5-0.2,0.5-0.5v-17.3C310.4,420.2,309.2,419,307.8,419L307.8,419L307.8,419z M307.8,420.1c1.7,0,2.2,2.4,0.5,3v-1.9
		c0-0.3-0.2-0.5-0.5-0.5h-1.2C306.8,420.3,307.3,420.1,307.8,420.1L307.8,420.1z M305.3,422c0.1-0.1,0.3-0.2,0.4-0.2
		c0,0,0.1,0,0.1,0h1.4v1.4h-1.4c-0.4,0-0.7-0.3-0.7-0.7c0,0,0,0,0,0v0C305.1,422.3,305.2,422.1,305.3,422L305.3,422L305.3,422z
		 M298.3,431.4C298.3,431.4,298.3,431.4,298.3,431.4l-0.9-0.5l2.5-3c0.1-0.1,0.1-0.1,0.1-0.2c0.2,0.1,0.4,0.2,0.6,0.3l1.6,0.7
		c0.2,0.1,0.3,0.1,0.4,0.2l-2.3,3.9L298.3,431.4L298.3,431.4z M292.9,432.6l-2.3-3.9c0.1,0,0.2-0.1,0.3-0.1l2.3-1
		c0,0.1,0.1,0.2,0.1,0.2l2.5,3L292.9,432.6L292.9,432.6z M304.2,414.7v0.1c0,0.6-0.6,1.1-1.2,1.1c-2.1-0.2-4.3-0.3-6.4-0.3
		s-4.3,0.1-6.4,0.3c-0.6,0.1-1.2-0.4-1.2-1.1v-0.1H304.2L304.2,414.7z M289.7,417.8v-0.8c0.2,0,0.4,0,0.6,0c4.2-0.4,8.4-0.4,12.6,0
		c0.1,0,0.1,0,0.2,0c0.1,0,0.3,0,0.4,0v0.8c0,1.8-0.7,3.6-2,4.9c-0.6,0.6-1.3,1.1-2.1,1.4c0,0-0.1,0-0.1,0c-0.8,0.4-1.7,0.5-2.7,0.5
		C292.8,424.7,289.7,421.6,289.7,417.8L289.7,417.8L289.7,417.8z M296.6,425.8c0.8,0,1.6-0.1,2.4-0.4v1.4v0c0,0,0,0,0,0v0.5
		l-2.4,2.8l-2.4-2.8v-0.5c0,0,0,0,0,0v-1.4C295,425.6,295.8,425.8,296.6,425.8L296.6,425.8L296.6,425.8z M286.7,435
		c0-2.3,1.1-4.4,3-5.7l2.6,4.4c0.1,0.1,0.2,0.2,0.3,0.3c0.1,0,0.3,0,0.4-0.1l1.5-0.9l-0.8,5.5h-7V435L286.7,435z M294.8,438.4l1-6.2
		l0.9-0.6l0.9,0.6l1,6.2H294.8L294.8,438.4z M309.3,438.4h-1.6V435c0-1.2-0.3-2.3-0.8-3.4c-0.1-0.3-0.5-0.4-0.7-0.3
		c-0.3,0.1-0.4,0.5-0.3,0.7c0.4,0.9,0.6,1.9,0.6,2.9v3.4l-7,0l-0.8-5.5l1.5,0.9c0.3,0.2,0.6,0.1,0.8-0.2l2.6-4.4
		c0.4,0.3,0.8,0.6,1.2,1c0.1,0.1,0.3,0.2,0.4,0.2c0.1,0,0.3,0,0.4-0.1c0.2-0.2,0.2-0.5,0-0.8c-0.1-0.2-0.3-0.3-0.5-0.5v-5
		c0,0,0.3,0.1,0.7,0.1c1.5-0.1,2.4,0.3,3.5-0.5V438.4L309.3,438.4z"/>
	<path class="st1" d="M305.2,436.3h-4c-0.3,0-0.5,0.2-0.5,0.5c0,0.3,0.2,0.5,0.5,0.5h4c0.3,0,0.5-0.2,0.5-0.5
		C305.7,436.5,305.5,436.3,305.2,436.3L305.2,436.3z"/>
	<path class="st1" d="M298.9,410.8c0-1.2-1-2.2-2.2-2.2s-2.2,1-2.2,2.2c0,1.2,1,2.2,2.2,2.2S298.9,412.1,298.9,410.8L298.9,410.8z
		 M295.5,410.8c0-0.6,0.5-1.2,1.2-1.2s1.2,0.5,1.2,1.2c0,0.6-0.5,1.2-1.2,1.2S295.5,411.5,295.5,410.8L295.5,410.8z"/>
</g>
</svg>
