<?xml version="1.0" encoding="utf-8"?>
<!-- Generator: Adobe Illustrator 20.1.0, SVG Export Plug-In . SVG Version: 6.00 Build 0)  -->
<svg version="1.1" id="Capa_1" xmlns="http://www.w3.org/2000/svg" xmlns:xlink="http://www.w3.org/1999/xlink" x="0px" y="0px"
	 viewBox="0 0 595.3 841.9" style="enable-background:new 0 0 595.3 841.9;" xml:space="preserve">
<style type="text/css">
	.st0{fill-rule:evenodd;clip-rule:evenodd;fill:#98C253;}
</style>
<g>
	<path class="st0" d="M312.7,418.8c-1.9,0-3.5,1.2-4.1,2.9c-0.4,0.1-0.8,0.4-1.1,0.7c-0.6,0.6-0.9,1.3-0.9,2.1c0,0,0,0,0,0.1v9.2
		c-1.1-0.7-1.5-0.8-6.3-2.9v-2.4c1.3-0.6,2.5-1.5,3.5-2.5c2.4-2.4,3.8-5.7,3.8-9.1v-2.2c0.7-0.7,1.1-1.6,1.1-2.5v-0.3
		c0.4-0.2,0.7-0.6,0.7-1.1v-3.8c0-1.1-0.9-2.1-2-2.1v-0.3c0-7-5.7-12.6-12.6-12.6c-3.5,0-6.8,1.5-9.2,4c-0.3,0.4-0.3,0.9,0,1.2
		c0.4,0.3,0.9,0.3,1.2,0c0.4-0.4,0.8-0.8,1.2-1.1l1.1,5.7c0.1,0.5,0.5,0.8,1,0.7c0.5-0.1,0.8-0.5,0.7-1l-1.2-6.4
		c1.5-0.8,3.3-1.2,5.1-1.2c1.8,0,3.6,0.5,5.1,1.3l-1.2,6.4c-0.1,0.5,0.3,1,0.9,1c0.4,0,0.8-0.3,0.9-0.7l1.1-5.7
		c2.6,2,4.2,5.1,4.2,8.6v0.3h-2.8c-0.5,0-0.9,0.4-0.9,0.9c0,0.5,0.4,0.9,0.9,0.9h4.5c0.2,0,0.3,0.2,0.3,0.3v3.3h-25.8v-3.3
		c0-0.2,0.2-0.3,0.4-0.3h4.5c0.5,0,0.9-0.4,0.9-0.9c0-0.5-0.4-0.9-0.9-0.9h-2.8v-0.3c0-1.7,0.4-3.3,1.1-4.7c0.2-0.4,0-1-0.4-1.2
		c-0.4-0.2-1,0-1.2,0.4c-0.8,1.7-1.3,3.6-1.3,5.5v0.3c-1.1,0-2,1-2,2.1v3.8c0,0.5,0.3,0.9,0.7,1.1v0.3c0,1,0.4,1.9,1.1,2.5v2.2
		c0,5.1,3,9.5,7.3,11.6v2.4c-0.9,0.4-1.7,0.7-2.3,1c-1,0.4-1.6,0.7-2.1,0.9l-0.1,0c-0.2,0.1-0.3,0.2-0.5,0.2
		c-0.2,0.1-0.4,0.2-0.6,0.3c0,0,0,0,0,0c0,0-0.1,0-0.1,0c-4,2.3-6.5,6.5-6.5,11.2v6c0,0.7,0.6,1.3,1.3,1.3h37.8
		c0.5,0,0.9-0.4,0.9-0.9v-27.9C317,420.7,315.1,418.8,312.7,418.8L312.7,418.8L312.7,418.8z M312.7,420.6c2.8,0,3.6,3.9,0.9,4.9v-3
		c0-0.5-0.4-0.9-0.9-0.9h-2C311.2,421,311.9,420.6,312.7,420.6L312.7,420.6z M308.8,423.7c0.2-0.2,0.4-0.3,0.7-0.3c0,0,0.1,0,0.2,0
		h2.2v2.3h-2.2c-0.6,0-1.1-0.5-1.2-1.1c0,0,0,0,0,0v0C308.5,424.2,308.6,423.9,308.8,423.7L308.8,423.7L308.8,423.7z M297.6,438.8
		C297.6,438.8,297.5,438.8,297.6,438.8l-1.4-0.9l4.1-4.8c0.1-0.1,0.1-0.2,0.2-0.4c0.4,0.2,0.7,0.3,1,0.4l2.5,1.1
		c0.2,0.1,0.4,0.2,0.6,0.3l-3.7,6.3L297.6,438.8L297.6,438.8z M288.8,440.8l-3.7-6.3c0.1-0.1,0.3-0.1,0.4-0.2l3.7-1.6
		c0,0.1,0.1,0.3,0.2,0.4l4.1,4.8L288.8,440.8L288.8,440.8z M307,411.9v0.2c0,1-0.9,1.8-1.9,1.7c-3.4-0.4-6.9-0.5-10.3-0.5
		c-3.4,0-6.9,0.2-10.3,0.5c-1,0.1-1.9-0.7-1.9-1.7v-0.2H307L307,411.9z M283.7,416.8v-1.3c0.3,0.1,0.7,0.1,1,0
		c6.7-0.7,13.5-0.7,20.3,0c0.1,0,0.2,0,0.4,0c0.2,0,0.4,0,0.6-0.1v1.3c0,3-1.2,5.8-3.3,7.9c-1,1-2.2,1.8-3.4,2.3c0,0-0.1,0-0.1,0.1
		c-1.3,0.6-2.8,0.9-4.3,0.9C288.7,428,283.7,423,283.7,416.8L283.7,416.8L283.7,416.8z M294.8,429.7c1.3,0,2.6-0.2,3.9-0.6v2.2v0
		c0,0,0,0,0,0v0.8l-3.9,4.6l-3.9-4.6v-0.8c0,0,0,0,0,0v-2.2C292.2,429.5,293.5,429.7,294.8,429.7L294.8,429.7L294.8,429.7z
		 M278.8,444.6c0-3.7,1.8-7.1,4.8-9.2l4.1,7.1c0.1,0.2,0.3,0.4,0.5,0.4c0.2,0.1,0.5,0,0.7-0.1l2.4-1.5l-1.4,8.8h-11.3V444.6
		L278.8,444.6z M291.8,450.1l1.5-10l1.5-0.9l1.5,0.9l1.5,10H291.8L291.8,450.1z M315.3,450.1h-2.7v-5.5c0-1.9-0.4-3.7-1.2-5.5
		c-0.2-0.4-0.7-0.6-1.2-0.4c-0.4,0.2-0.6,0.7-0.4,1.2c0.7,1.5,1,3.1,1,4.7v5.5h-11.3l-1.4-8.8l2.4,1.5c0.4,0.3,1,0.1,1.2-0.3
		l4.1-7.1c0.7,0.5,1.3,1,1.9,1.7c0.2,0.2,0.4,0.3,0.6,0.3c0.2,0,0.4-0.1,0.6-0.2c0.4-0.3,0.4-0.9,0.1-1.2c-0.2-0.3-0.5-0.5-0.8-0.8
		v-8c0,0,0.5,0.2,1.2,0.2c2.3-0.1,3.9,0.4,5.6-0.8V450.1L315.3,450.1z"/>
	<path class="st0" d="M308.6,446.7h-6.4c-0.5,0-0.9,0.4-0.9,0.9c0,0.5,0.4,0.9,0.9,0.9h6.4c0.5,0,0.9-0.4,0.9-0.9
		C309.5,447.1,309.1,446.7,308.6,446.7L308.6,446.7z"/>
	<path class="st0" d="M298.4,405.7c0-2-1.6-3.6-3.6-3.6c-2,0-3.6,1.6-3.6,3.6c0,2,1.6,3.6,3.6,3.6
		C296.8,409.3,298.4,407.7,298.4,405.7L298.4,405.7z M292.9,405.7c0-1,0.8-1.9,1.9-1.9c1,0,1.9,0.8,1.9,1.9s-0.8,1.9-1.9,1.9
		C293.8,407.5,292.9,406.7,292.9,405.7L292.9,405.7z"/>
</g>
</svg>
