<?xml version="1.0" encoding="utf-8"?>
<!-- Generator: Adobe Illustrator 20.1.0, SVG Export Plug-In . SVG Version: 6.00 Build 0)  -->
<svg version="1.1" id="Capa_1" xmlns="http://www.w3.org/2000/svg" xmlns:xlink="http://www.w3.org/1999/xlink" x="0px" y="0px"
	 viewBox="0 0 595.3 841.9" style="enable-background:new 0 0 595.3 841.9;" xml:space="preserve">
<style type="text/css">
	.st0{fill-rule:evenodd;clip-rule:evenodd;fill:#98C253;}
	.st1{fill-rule:evenodd;clip-rule:evenodd;fill:#FEDBAB;}
	.st2{fill-rule:evenodd;clip-rule:evenodd;fill:#FEC478;}
	.st3{fill-rule:evenodd;clip-rule:evenodd;fill:#17ACE8;}
	.st4{fill-rule:evenodd;clip-rule:evenodd;fill:#1689FC;}
	.st5{fill-rule:evenodd;clip-rule:evenodd;fill:#136EF1;}
</style>
<g>
	<path class="st0" d="M327,421.9c0-16.6-13.4-30-30-30s-30,13.4-30,30c0,16.6,13.4,30,30,30S327,438.5,327,421.9L327,421.9z"/>
	<path class="st1" d="M313.9,424.2l-5.9,8.5c-1.1,1.5-3,2.4-4.9,2.4h-17.3l-1.1-10.6l1.1-1c1.5-1.4,2.5-2.3,4.5-2.8
		c2.4-0.5,4.7,0.1,6.3,1.5c0.4,0.3,0.6,0.7,1.2,0.7h0.2c4.7,0,0.5,0,5.1,0c1.1,0,2,0.9,2,2c0,1.1-0.9,2-2,2H299c-0.6,0-1,0.4-1,1
		c0,0.6,0.4,1,1,1h4.8c0.4,0,1.1-0.2,1.5-0.6l5.5-6.8c0.7-0.7,1.8-0.9,2.7-0.3C314.3,422,314.5,423.3,313.9,424.2L313.9,424.2z"/>
	<path class="st2" d="M298,428V423c4.7,0,0.5,0,5.1,0c1.1,0,2,0.9,2,2c0,1.1-0.9,2-2,2H299C298.5,427,298,427.5,298,428L298,428z"/>
	<path class="st2" d="M313.9,424.2l-5.9,8.5c-1.1,1.5-3,2.4-4.9,2.4H298V428c0,0.6,0.4,1,1,1l4.8,0c0.4,0,1.1-0.2,1.5-0.6l5.5-6.8
		c0.7-0.7,1.8-0.9,2.7-0.3C314.3,422,314.5,423.3,313.9,424.2L313.9,424.2z"/>
	<path class="st3" d="M285.9,438.6l-6.1-12.1c-0.3-0.5,0-1.1,0.5-1.4l2.2-1.1c1.5-0.7,3.3-0.1,4.1,1.4l4.3,8.5
		c0.8,1.5,0.1,3.3-1.4,4.1l-2.2,1.1C286.8,439.3,286.2,439.1,285.9,438.6L285.9,438.6z"/>
	<path class="st4" d="M298,410.7c-3.3,0-6.1,2.8-6.1,6.1v1.1c0,0.6,0.4,1,1,1h10.3c0.6,0,1-0.4,1-1v-1.1
		C304.2,413.5,301.4,410.7,298,410.7L298,410.7z"/>
	<path class="st5" d="M304.2,416.8v1.1c0,0.6-0.4,1-1,1H298v-8.2C301.4,410.7,304.2,413.5,304.2,416.8L304.2,416.8z"/>
	<path class="st3" d="M298,404.6c-2.2,0-4.1,1.8-4.1,4c0,2.2,1.9,4,4.1,4c2.2,0,4.1-1.8,4.1-4C302.1,406.4,300.2,404.6,298,404.6
		L298,404.6z"/>
	<path class="st4" d="M302.1,408.7c0,2.2-1.9,4-4.1,4v-8.1C300.2,404.6,302.1,406.4,302.1,408.7L302.1,408.7z"/>
</g>
</svg>
