<?xml version="1.0" encoding="utf-8"?>
<!-- Generator: Adobe Illustrator 20.1.0, SVG Export Plug-In . SVG Version: 6.00 Build 0)  -->
<svg version="1.1" id="Capa_1" xmlns="http://www.w3.org/2000/svg" xmlns:xlink="http://www.w3.org/1999/xlink" x="0px" y="0px"
	 viewBox="0 0 595.3 841.9" style="enable-background:new 0 0 595.3 841.9;" xml:space="preserve">
<style type="text/css">
	.st0{fill-rule:evenodd;clip-rule:evenodd;fill:#91B754;}
	.st1{fill-rule:evenodd;clip-rule:evenodd;fill:#FFFFFF;}
</style>
<g>
	<path class="st0" d="M328,420.9c0-16.6-13.4-30-30-30c-16.6,0-30,13.4-30,30c0,16.6,13.4,30,30,30C314.6,450.9,328,437.5,328,420.9
		L328,420.9z"/>
	<path class="st1" d="M309.8,406.9C309.8,406.9,309.8,406.9,309.8,406.9h-7v-1.6c0-0.3-0.2-0.5-0.5-0.5l0,0h-8.6
		c-0.3,0-0.5,0.2-0.5,0.5l0,0v1.6h-7c-0.3,0-0.5,0.2-0.5,0.5v0v29c0,0.3,0.2,0.5,0.5,0.5c0,0,0,0,0,0h23.6c0.3,0,0.5-0.2,0.5-0.5
		c0,0,0,0,0,0l0-29C310.3,407.2,310.1,406.9,309.8,406.9L309.8,406.9z M294.2,405.9h7.5v3.2h-7.5V405.9L294.2,405.9z M309.3,435.9
		h-22.5V408h6.4v1.6c0,0.3,0.2,0.5,0.5,0.5l0,0h8.6c0.3,0,0.5-0.2,0.5-0.5c0,0,0,0,0,0V408h6.4V435.9L309.3,435.9z"/>
	<polygon class="st1" points="287.8,430.5 299.6,430.5 299.6,429.5 287.8,429.5 287.8,430.5 	"/>
	<polygon class="st1" points="300.7,430.5 308.2,430.5 308.2,429.5 300.7,429.5 300.7,430.5 	"/>
	<polygon class="st1" points="287.8,432.7 308.2,432.7 308.2,431.6 287.8,431.6 287.8,432.7 	"/>
	<polygon class="st1" points="287.8,434.8 296.4,434.8 296.4,433.8 287.8,433.8 287.8,434.8 	"/>
	<polygon class="st1" points="297.5,434.8 308.2,434.8 308.2,433.8 297.5,433.8 297.5,434.8 	"/>
	<path class="st1" d="M291.6,420.4L291.6,420.4h-3.2c-0.3,0-0.5,0.2-0.5,0.5v0v7c0,0.3,0.2,0.5,0.5,0.5h0h3.2c0.3,0,0.5-0.2,0.5-0.5
		v0v-7C292.1,420.6,291.9,420.4,291.6,420.4L291.6,420.4z M291,427.3h-2.1v-5.9h2.1V427.3L291,427.3z"/>
	<path class="st1" d="M296.9,418.2L296.9,418.2h-3.2c-0.3,0-0.5,0.2-0.5,0.5c0,0,0,0,0,0v9.1c0,0.3,0.2,0.5,0.5,0.5l0,0h3.2
		c0.3,0,0.5-0.2,0.5-0.5v0v-9.1C297.5,418.4,297.2,418.2,296.9,418.2L296.9,418.2z M296.4,427.3h-2.1v-8h2.1V427.3L296.4,427.3z"/>
	<path class="st1" d="M302.3,416.1L302.3,416.1h-3.2c-0.3,0-0.5,0.2-0.5,0.5c0,0,0,0,0,0v11.3c0,0.3,0.2,0.5,0.5,0.5c0,0,0,0,0,0
		h3.2c0.3,0,0.5-0.2,0.5-0.5v0v-11.3C302.8,416.3,302.6,416.1,302.3,416.1L302.3,416.1z M301.8,427.3h-2.1v-10.2h2.1V427.3
		L301.8,427.3z"/>
	<path class="st1" d="M307.7,413.9L307.7,413.9h-3.2c-0.3,0-0.5,0.2-0.5,0.5v0v13.4c0,0.3,0.2,0.5,0.5,0.5l0,0h3.2
		c0.3,0,0.5-0.2,0.5-0.5v0v-13.4C308.2,414.2,308,413.9,307.7,413.9L307.7,413.9z M307.1,427.3H305V415h2.1V427.3L307.1,427.3z"/>
	<path class="st1" d="M307.6,410.2l-5.4,1.1c-0.1,0-0.1,0-0.2,0.1l-4.7,3.1h-4.7c-0.1,0-0.2,0-0.3,0.1l-4.3,2.7l0.6,0.9l4.2-2.6h4.7
		c0.1,0,0.2,0,0.3-0.1l4.7-3.2l5.3-1.1L307.6,410.2L307.6,410.2z"/>
</g>
</svg>
