<?xml version="1.0" encoding="utf-8"?>
<!-- Generator: Adobe Illustrator 20.1.0, SVG Export Plug-In . SVG Version: 6.00 Build 0)  -->
<svg version="1.1" id="Capa_1" xmlns="http://www.w3.org/2000/svg" xmlns:xlink="http://www.w3.org/1999/xlink" x="0px" y="0px"
	 viewBox="0 0 595.3 841.9" style="enable-background:new 0 0 595.3 841.9;" xml:space="preserve">
<style type="text/css">
	.st0{fill-rule:evenodd;clip-rule:evenodd;fill:#73808D;}
	.st1{fill-rule:evenodd;clip-rule:evenodd;fill:#E6F6FC;}
	.st2{fill-rule:evenodd;clip-rule:evenodd;fill:#CAE5ED;}
	.st3{fill-rule:evenodd;clip-rule:evenodd;fill:#9BB8D1;}
	.st4{fill-rule:evenodd;clip-rule:evenodd;fill:#87D1EA;}
	.st5{fill-rule:evenodd;clip-rule:evenodd;fill:#5FA6CE;}
	.st6{fill-rule:evenodd;clip-rule:evenodd;fill:#3A4D7B;}
	.st7{fill-rule:evenodd;clip-rule:evenodd;fill:#C2F4FF;}
	.st8{fill-rule:evenodd;clip-rule:evenodd;fill:#FFCCA9;}
	.st9{fill-rule:evenodd;clip-rule:evenodd;fill:#FFA076;}
	.st10{fill-rule:evenodd;clip-rule:evenodd;fill:#FFDC61;}
	.st11{fill-rule:evenodd;clip-rule:evenodd;fill:#F7AD48;}
	.st12{fill-rule:evenodd;clip-rule:evenodd;fill:#FFEEA6;}
</style>
<g>
	<path class="st0" d="M328,421.9c0-16.6-13.4-30-30-30s-30,13.4-30,30s13.4,30,30,30S328,438.5,328,421.9L328,421.9z"/>
	<polygon class="st1" points="310.3,422.7 310.3,440.6 304.8,440.6 304.8,423.6 310.3,422.7 	"/>
	<polygon class="st2" points="308.6,422.9 308.6,440.6 310.3,440.6 310.3,422.7 308.6,422.9 	"/>
	<path class="st3" d="M310.3,422.7c0,1.2-1,2.2-2.2,2.2s-2.2-1-2.2-2.2c0-1.2,1-2.2,2.2-2.2S310.3,421.5,310.3,422.7L310.3,422.7z"
		/>
	<path class="st2" d="M306.1,422.2h2v2.6h-2c-0.7,0-1.3-0.6-1.3-1.3C304.8,422.8,305.4,422.2,306.1,422.2L306.1,422.2z"/>
	<path class="st4" d="M298.3,427.5h-3.5l-4.5,1.9c-2.8,1.2-4.6,4-4.6,7.1v3.8c0,0.2,0.1,0.3,0.3,0.3h21.2c0.2,0,0.3-0.1,0.3-0.3
		v-3.8c0-3.1-1.8-5.9-4.6-7.1L298.3,427.5L298.3,427.5z"/>
	<path class="st5" d="M302.8,429.4l-4.5-1.9h-1.8l4.5,1.9c2.8,1.2,4.6,4,4.6,7.1v3.8c0,0.2-0.1,0.3-0.3,0.3h1.8
		c0.2,0,0.3-0.1,0.3-0.3v-3.8C307.5,433.4,305.6,430.6,302.8,429.4L302.8,429.4z"/>
	<polygon class="st6" points="295.5,430.6 297.6,430.6 299.2,440.6 294,440.6 295.5,430.6 	"/>
	<path class="st7" d="M289.6,429.8l2.6,4.5c0.2,0.3,0.5,0.4,0.8,0.2l3.5-2.2v-4.9h-1.8C290,429.5,290.2,429.4,289.6,429.8
		C289.7,429.7,289.6,429.7,289.6,429.8C289.6,429.8,289.6,429.8,289.6,429.8L289.6,429.8z"/>
	<path class="st7" d="M303.6,429.8l-2.6,4.5c-0.2,0.3-0.5,0.4-0.8,0.2l-3.5-2.2v-4.9h1.8C303.1,429.5,303,429.4,303.6,429.8
		C303.5,429.7,303.5,429.7,303.6,429.8C303.5,429.8,303.6,429.8,303.6,429.8L303.6,429.8z"/>
	<path class="st4" d="M301,429.4c0.8,0.3,1.4,0.8,2,1.3l0.5-0.9c0,0,0,0,0,0c0,0,0,0,0,0c0,0,0,0,0,0c0,0,0,0,0,0
		c0,0-0.1-0.1-0.2-0.1c0,0,0,0,0,0c-0.1,0-0.1-0.1-0.2-0.1c-0.1-0.1-0.3-0.1-0.6-0.3l-1-0.5c-0.7-0.3-1.7-0.7-3.2-1.4h-1.8v0
		L301,429.4L301,429.4z"/>
	<polygon class="st8" points="293.5,422.8 293.5,428.7 296.6,432.3 299.6,428.7 299.6,422.8 293.5,422.8 	"/>
	<path class="st9" d="M293.5,426.5c1.2,0.9,2.8,1.4,4.4,1.4c0.6,0,1.1-0.1,1.7-0.2v-4.9h-6.1V426.5L293.5,426.5z"/>
	<path class="st8" d="M288.9,413.8v4.8c0,4.3,3.5,7.7,7.7,7.7c4.3,0,7.7-3.5,7.7-7.7v-4.8H288.9L288.9,413.8z"/>
	<path class="st9" d="M302.4,413.8v4.8c0,3.9-3,7.2-6.8,7.7c0.3,0,0.6,0.1,0.9,0.1c4.3,0,7.7-3.5,7.7-7.7v-4.8H302.4L302.4,413.8z"
		/>
	<path class="st10" d="M304.1,411.3v-0.6c0-4.2-3.4-7.5-7.5-7.5c-4.2,0-7.5,3.4-7.5,7.5v0.6c0,0.1-0.1,0.2-0.2,0.2h-0.4
		c-0.4,0-0.8,0.4-0.8,0.8v2.4c0,0.1,0.1,0.2,0.2,0.2h17.2c0.1,0,0.2-0.1,0.2-0.2v-2.4c0-0.4-0.4-0.8-0.8-0.8h-0.4
		C304.2,411.5,304.1,411.4,304.1,411.3L304.1,411.3L304.1,411.3z"/>
	<path class="st11" d="M304.6,411.5h-0.4c-0.1,0-0.2-0.1-0.2-0.2v-0.6c0-4.2-3.4-7.5-7.5-7.5c-0.3,0-0.6,0-0.9,0.1
		c3.7,0.5,6.6,3.6,6.6,7.5v0.6c0,0.1,0.1,0.2,0.2,0.2h0.4c0.4,0,0.8,0.4,0.8,0.8v2.7h1.7c0.1,0,0.2-0.1,0.2-0.2v-2.4
		C305.4,411.8,305.1,411.5,304.6,411.5L304.6,411.5z"/>
	<path class="st11" d="M293,408.9c0.1,0.3,0.3,0.5,0.6,0.5c0,0,0.1,0,0.1,0c0.3-0.1,0.5-0.4,0.5-0.7l-0.9-4.7
		c-0.4,0.2-0.7,0.4-1,0.6L293,408.9L293,408.9z"/>
	<path class="st11" d="M299.5,409.3c0,0,0.1,0,0.1,0c0.3,0,0.5-0.2,0.6-0.5l0.8-4.3c-0.3-0.2-0.7-0.4-1-0.6l-0.9,4.7
		C299,409,299.2,409.3,299.5,409.3L299.5,409.3L299.5,409.3z"/>
	<path class="st6" d="M305.4,439h-4.1c-0.3,0-0.5-0.2-0.5-0.5c0-0.3,0.2-0.5,0.5-0.5h4.1c0.3,0,0.5,0.2,0.5,0.5
		C306,438.7,305.7,439,305.4,439L305.4,439z"/>
	<path class="st12" d="M298.3,411.5c0,1-0.8,1.8-1.8,1.8c-1,0-1.8-0.8-1.8-1.8c0-1,0.8-1.8,1.8-1.8
		C297.6,409.7,298.3,410.5,298.3,411.5L298.3,411.5z"/>
	<path class="st12" d="M290,417.3c4.4-0.5,8.8-0.5,13.1,0c1,0.1,1.8-0.7,1.8-1.7v-0.7h-16.8v0.7C288.2,416.6,289,417.4,290,417.3
		L290,417.3L290,417.3z"/>
</g>
</svg>
