<?xml version="1.0" encoding="utf-8"?>
<!-- Generator: Adobe Illustrator 20.1.0, SVG Export Plug-In . SVG Version: 6.00 Build 0)  -->
<svg version="1.1" id="Capa_1" xmlns="http://www.w3.org/2000/svg" xmlns:xlink="http://www.w3.org/1999/xlink" x="0px" y="0px"
	 viewBox="0 0 595.3 841.9" style="enable-background:new 0 0 595.3 841.9;" xml:space="preserve">
<style type="text/css">
	.st0{fill-rule:evenodd;clip-rule:evenodd;fill:#FEDBAB;}
	.st1{fill-rule:evenodd;clip-rule:evenodd;fill:#FEC478;}
	.st2{fill-rule:evenodd;clip-rule:evenodd;fill:#17ACE8;}
	.st3{fill-rule:evenodd;clip-rule:evenodd;fill:#1689FC;}
	.st4{fill-rule:evenodd;clip-rule:evenodd;fill:#136EF1;}
</style>
<g>
	<path class="st0" d="M326.3,424.9l-10.2,14.8c-2,2.6-5.1,4.2-8.4,4.2h-30.1l-1.8-18.5l1.8-1.7c2.7-2.4,4.4-4,7.9-4.8
		c4.1-0.9,8.2,0.2,10.9,2.7c0.7,0.6,1.1,1.2,2,1.2h0.4c8.2,0,0.8,0,8.9,0c1.9,0,3.5,1.6,3.5,3.5c0,1.9-1.6,3.5-3.5,3.5h-7.1
		c-1,0-1.8,0.8-1.8,1.8s0.8,1.8,1.8,1.8h8.3c0.7,0,1.9-0.4,2.6-1.1l9.5-11.8c1.2-1.3,3.2-1.5,4.6-0.5
		C327.1,421.1,327.5,423.3,326.3,424.9L326.3,424.9z"/>
	<path class="st1" d="M298.8,431.6v-8.8c8.2,0,0.8,0,8.9,0c1.9,0,3.5,1.6,3.5,3.5c0,1.9-1.6,3.5-3.5,3.5h-7.1
		C299.5,429.8,298.8,430.6,298.8,431.6L298.8,431.6z"/>
	<path class="st1" d="M326.3,424.9l-10.2,14.8c-2,2.6-5.1,4.2-8.4,4.2h-8.9v-12.3c0,1,0.8,1.8,1.8,1.8l8.3,0c0.7,0,1.9-0.4,2.6-1.1
		l9.5-11.8c1.2-1.3,3.2-1.5,4.6-0.5C327.1,421.1,327.5,423.3,326.3,424.9L326.3,424.9z"/>
	<path class="st2" d="M277.7,449.9l-10.5-21.1c-0.4-0.9-0.1-1.9,0.8-2.4l3.9-1.9c2.6-1.3,5.8-0.2,7.1,2.4l7.4,14.8
		c1.3,2.6,0.2,5.8-2.4,7.1l-3.9,1.9C279.2,451.1,278.2,450.8,277.7,449.9L277.7,449.9z"/>
	<path class="st3" d="M298.8,401.4c-5.8,0-10.7,4.9-10.7,10.7v1.9c0,1,0.8,1.8,1.8,1.8h17.8c1,0,1.8-0.8,1.8-1.8v-1.9
		C309.4,406.3,304.6,401.4,298.8,401.4L298.8,401.4z"/>
	<path class="st4" d="M309.4,412.1v1.9c0,1-0.8,1.8-1.8,1.8h-8.9v-14.3C304.6,401.4,309.4,406.3,309.4,412.1L309.4,412.1z"/>
	<path class="st2" d="M298.8,390.9c-3.9,0-7.1,3.2-7.1,7c0,3.9,3.3,7,7.1,7s7.1-3.2,7.1-7C305.9,394.1,302.6,390.9,298.8,390.9
		L298.8,390.9z"/>
	<path class="st3" d="M305.9,397.9c0,3.9-3.3,7-7.1,7v-14.1C302.6,390.9,305.9,394.1,305.9,397.9L305.9,397.9z"/>
</g>
</svg>
