<?xml version="1.0" encoding="utf-8"?>
<!-- Generator: Adobe Illustrator 20.1.0, SVG Export Plug-In . SVG Version: 6.00 Build 0)  -->
<svg version="1.1" id="Capa_1" xmlns="http://www.w3.org/2000/svg" xmlns:xlink="http://www.w3.org/1999/xlink" x="0px" y="0px"
	 viewBox="0 0 595.3 841.9" style="enable-background:new 0 0 595.3 841.9;" xml:space="preserve">
<style type="text/css">
	.st0{fill-rule:evenodd;clip-rule:evenodd;fill:#98C253;}
</style>
<g>
	<path class="st0" d="M318.8,400.2L313,406v-9.1c0-2.8-2.2-5-5-5h-35c-2.8,0-5,2.2-5,5v4c0,0.6,0.4,1,1,1h7v44c0,3.3,2.7,6,6,6h35
		c3.3,0,6-2.7,6-6v-3c0-0.6-0.4-1-1-1h-9v-23.1l12.2-12.2c1.8-1.8,1.8-4.6,0-6.4S320.6,398.4,318.8,400.2L318.8,400.2L318.8,400.2z
		 M276,399.9h-6v-3c0-1.7,1.3-3,3-3c1.7,0,3,1.3,3,3V399.9L276,399.9z M286,442.9v3c0,2.2-1.8,4-4,4c-2.2,0-4-1.8-4-4v-49
		c0-1.1-0.4-2.1-1-3h31c1.7,0,3,1.3,3,3V408l-13.7,13.7c0,0,0,0,0,0c-0.1,0.1-0.1,0.2-0.2,0.3c0,0,0,0,0,0l0,0l-3,8
		c-0.2,0.5,0.1,1.1,0.6,1.3c0.2,0.1,0.5,0.1,0.7,0l8-3l0,0c0,0,0,0,0,0c0.1,0,0.2-0.1,0.3-0.2c0,0,0,0,0,0l7.3-7.3v21.1h-24
		C286.4,441.9,286,442.3,286,442.9L286,442.9z M298.4,424.2l2.8,2.8l-4.5,1.7L298.4,424.2L298.4,424.2z M321,443.9v2
		c0,2.2-1.8,4-4,4h-30.5c1-1.1,1.5-2.5,1.5-4v-2H321L321,443.9z M303,426l-3.6-3.6l15.1-15.1l3.6,3.6L303,426L303,426z M319.5,409.5
		l-3.6-3.6l1.6-1.6l3.6,3.6L319.5,409.5L319.5,409.5z M323.8,405.2l-1.3,1.3l-3.6-3.6l1.3-1.3c1-1,2.6-0.9,3.6,0.1
		C324.7,402.7,324.7,404.2,323.8,405.2L323.8,405.2L323.8,405.2z"/>
	<polygon class="st0" points="282,435.9 289,435.9 289,437.9 282,437.9 282,435.9 	"/>
	<polygon class="st0" points="282,427.9 292,427.9 292,429.9 282,429.9 282,427.9 	"/>
	<polygon class="st0" points="282,419.9 291,419.9 291,421.9 282,421.9 282,419.9 	"/>
	<polygon class="st0" points="286,411.9 302,411.9 302,413.9 286,413.9 286,411.9 	"/>
	<polygon class="st0" points="293,419.9 295,419.9 295,421.9 293,421.9 293,419.9 	"/>
	<polygon class="st0" points="282,411.9 284,411.9 284,413.9 282,413.9 282,411.9 	"/>
	<polygon class="st0" points="303,435.9 305,435.9 305,437.9 303,437.9 303,435.9 	"/>
	<polygon class="st0" points="291,435.9 301,435.9 301,437.9 291,437.9 291,435.9 	"/>
	<polygon class="st0" points="294,395.9 296,395.9 296,397.9 294,397.9 294,395.9 	"/>
	<polygon class="st0" points="294,405.9 296,405.9 296,407.9 294,407.9 294,405.9 	"/>
	<polygon class="st0" points="290.1,398.4 291.5,396.9 292.9,398.4 291.5,399.8 290.1,398.4 	"/>
	<polygon class="st0" points="297.1,405.4 298.5,404 299.9,405.4 298.5,406.8 297.1,405.4 	"/>
	<polygon class="st0" points="289,400.9 291,400.9 291,402.9 289,402.9 289,400.9 	"/>
	<polygon class="st0" points="299,400.9 301,400.9 301,402.9 299,402.9 299,400.9 	"/>
	<polygon class="st0" points="290.1,405.4 291.5,404 292.9,405.4 291.5,406.8 290.1,405.4 	"/>
	<polygon class="st0" points="297.1,398.4 298.5,396.9 299.9,398.4 298.5,399.8 297.1,398.4 	"/>
</g>
</svg>
