<?xml version="1.0" encoding="utf-8"?>
<!-- Generator: Adobe Illustrator 20.1.0, SVG Export Plug-In . SVG Version: 6.00 Build 0)  -->
<svg version="1.1" id="Capa_1" xmlns="http://www.w3.org/2000/svg" xmlns:xlink="http://www.w3.org/1999/xlink" x="0px" y="0px"
	 viewBox="0 0 595.3 841.9" style="enable-background:new 0 0 595.3 841.9;" xml:space="preserve">
<style type="text/css">
	.st0{fill-rule:evenodd;clip-rule:evenodd;fill:#2276BB;}
	.st1{fill-rule:evenodd;clip-rule:evenodd;fill:#88D0EF;}
	.st2{fill-rule:evenodd;clip-rule:evenodd;fill:#D2B894;}
	.st3{fill-rule:evenodd;clip-rule:evenodd;fill:#EC7422;}
	.st4{fill-rule:evenodd;clip-rule:evenodd;fill:#3A5565;}
	.st5{fill-rule:evenodd;clip-rule:evenodd;fill:#162730;}
	.st6{fill-rule:evenodd;clip-rule:evenodd;fill:#FFBF41;}
	.st7{fill-rule:evenodd;clip-rule:evenodd;fill:#D2D7D6;}
</style>
<g>
	<path class="st0" d="M304.2,399.2H268V395c0-2.3,1.9-4.1,4.1-4.1h32.1V399.2L304.2,399.2z"/>
	<path class="st1" d="M317.7,450.9c-2.9,0-5.2-2.3-5.2-5.2V395c0-2.3-1.9-4.1-4.1-4.1h-36.2c2.3,0,4.1,1.9,4.1,4.1v50.7
		c0,2.9,2.3,5.2,5.2,5.2H317.7L317.7,450.9z"/>
	<path class="st2" d="M325.4,399.2c-1.4-1.4-3.7-1.4-5.2,0c0,0,0,0,0,0L298,421.4l-3.1,8.3l8.3-3.1l22.2-22.2
		C326.8,402.9,326.8,400.6,325.4,399.2C325.4,399.2,325.4,399.2,325.4,399.2L325.4,399.2L325.4,399.2z"/>
	<path class="st3" d="M298,421.4l22.2-22.2c1.4-1.4,3.7-1.4,5.2,0v0c1.4,1.4,1.4,3.7,0,5.2c0,0,0,0,0,0l-22.2,22.2L298,421.4
		L298,421.4z"/>
	<path class="st4" d="M325.4,399.2c-1.4-1.4-3.7-1.4-5.2,0c0,0,0,0,0,0l-3.1,3.1l5,5.4l3.3-3.3C326.8,402.9,326.8,400.6,325.4,399.2
		C325.4,399.2,325.4,399.2,325.4,399.2L325.4,399.2L325.4,399.2z"/>
	<path class="st0" d="M281.4,450.9c2.9,0,5.2-2.3,5.2-5.2v-3.1h36.2v3.1c0,2.9-2.3,5.2-5.2,5.2H281.4L281.4,450.9z"/>
	<polygon class="st5" points="281.4,435.4 288.7,435.4 288.7,437.4 281.4,437.4 281.4,435.4 	"/>
	<polygon class="st5" points="281.4,427.1 291.8,427.1 291.8,429.2 281.4,429.2 281.4,427.1 	"/>
	<polygon class="st5" points="281.4,418.8 290.8,418.8 290.8,420.9 281.4,420.9 281.4,418.8 	"/>
	<polygon class="st5" points="285.6,410.5 302.1,410.5 302.1,412.6 285.6,412.6 285.6,410.5 	"/>
	<polygon class="st5" points="292.8,418.8 294.9,418.8 294.9,420.9 292.8,420.9 292.8,418.8 	"/>
	<polygon class="st5" points="281.4,410.5 283.5,410.5 283.5,412.6 281.4,412.6 281.4,410.5 	"/>
	<polygon class="st5" points="303.2,435.4 305.2,435.4 305.2,437.4 303.2,437.4 303.2,435.4 	"/>
	<polygon class="st5" points="290.8,435.4 301.1,435.4 301.1,437.4 290.8,437.4 290.8,435.4 	"/>
	<polygon class="st6" points="293.9,394 295.9,394 295.9,396.1 293.9,396.1 293.9,394 	"/>
	<polygon class="st6" points="293.9,404.3 295.9,404.3 295.9,406.4 293.9,406.4 293.9,404.3 	"/>
	<polygon class="st6" points="289.8,396.5 291.2,395.1 292.7,396.5 291.2,398 289.8,396.5 	"/>
	<polygon class="st6" points="297.1,403.9 298.6,402.4 300,403.9 298.6,405.3 297.1,403.9 	"/>
	<polygon class="st6" points="288.7,399.2 290.8,399.2 290.8,401.2 288.7,401.2 288.7,399.2 	"/>
	<polygon class="st6" points="299,399.2 301.1,399.2 301.1,401.2 299,401.2 299,399.2 	"/>
	<polygon class="st6" points="289.8,403.9 291.2,402.4 292.7,403.9 291.2,405.3 289.8,403.9 	"/>
	<polygon class="st6" points="297.1,396.5 298.6,395.1 300,396.5 298.6,398 297.1,396.5 	"/>
	<polygon class="st5" points="294.9,429.7 299.9,427.9 296.8,424.8 294.9,429.7 	"/>
	<polygon class="st6" points="299.9,423.3 317.2,406 318.7,407.5 301.4,424.8 299.9,423.3 	"/>
	<polygon class="st7" points="315.1,404.4 318.2,401.3 323.3,406.4 320.2,409.5 315.1,404.4 	"/>
</g>
</svg>
