<?xml version="1.0" encoding="utf-8"?>
<!-- Generator: Adobe Illustrator 20.1.0, SVG Export Plug-In . SVG Version: 6.00 Build 0)  -->
<svg version="1.1" id="Capa_1" xmlns="http://www.w3.org/2000/svg" xmlns:xlink="http://www.w3.org/1999/xlink" x="0px" y="0px"
	 viewBox="0 0 595.3 841.9" style="enable-background:new 0 0 595.3 841.9;" xml:space="preserve">
<style type="text/css">
	.st0{fill-rule:evenodd;clip-rule:evenodd;fill:#717D8A;}
	.st1{fill-rule:evenodd;clip-rule:evenodd;fill:#FFFFFF;}
</style>
<g>
	<path class="st0" d="M328,421.9c0-16.6-13.4-30-30-30c-16.6,0-30,13.4-30,30s13.4,30,30,30C314.6,451.9,328,438.5,328,421.9
		L328,421.9z"/>
	<path class="st1" d="M310.6,409.2l-3.4,3.4v-5.3c0-1.6-1.3-2.9-2.9-2.9h-20.5c-1.6,0-2.9,1.3-2.9,2.9v2.3c0,0.3,0.3,0.6,0.6,0.6
		h4.1v25.7c0,1.9,1.6,3.5,3.5,3.5h20.5c1.9,0,3.5-1.6,3.5-3.5v-1.8c0-0.3-0.3-0.6-0.6-0.6h-5.3v-13.5l7.1-7.1c1-1,1-2.7,0-3.7
		C313.3,408.2,311.6,408.2,310.6,409.2L310.6,409.2L310.6,409.2z M285.6,409h-3.5v-1.8c0-1,0.8-1.8,1.8-1.8c1,0,1.8,0.8,1.8,1.8V409
		L285.6,409z M291.4,434.2v1.8c0,1.3-1,2.3-2.3,2.3c-1.3,0-2.3-1-2.3-2.3v-28.6c0-0.6-0.2-1.3-0.6-1.8h18.1c1,0,1.8,0.8,1.8,1.8v6.5
		l-8,8c0,0,0,0,0,0c0,0-0.1,0.1-0.1,0.2c0,0,0,0,0,0l0,0l-1.8,4.7c-0.1,0.3,0,0.6,0.3,0.8c0.1,0.1,0.3,0.1,0.4,0l4.7-1.8l0,0
		c0,0,0,0,0,0c0.1,0,0.1-0.1,0.2-0.1c0,0,0,0,0,0l4.3-4.3v12.3h-14C291.7,433.6,291.4,433.8,291.4,434.2L291.4,434.2z M298.7,423.3
		l1.6,1.6l-2.6,1L298.7,423.3L298.7,423.3z M311.9,434.7v1.2c0,1.3-1,2.3-2.3,2.3h-17.8c0.6-0.6,0.9-1.5,0.9-2.3v-1.2H311.9
		L311.9,434.7z M301.3,424.3l-2.1-2.1l8.8-8.8l2.1,2.1L301.3,424.3L301.3,424.3z M311,414.7l-2.1-2.1l0.9-0.9l2.1,2.1L311,414.7
		L311,414.7z M313.5,412.1l-0.8,0.8l-2.1-2.1l0.8-0.8c0.6-0.6,1.5-0.6,2.1,0C314.1,410.7,314.1,411.6,313.5,412.1L313.5,412.1
		L313.5,412.1z"/>
	<polygon class="st1" points="289.1,430.1 293.2,430.1 293.2,431.2 289.1,431.2 289.1,430.1 	"/>
	<polygon class="st1" points="289.1,425.4 294.9,425.4 294.9,426.6 289.1,426.6 289.1,425.4 	"/>
	<polygon class="st1" points="289.1,420.7 294.3,420.7 294.3,421.9 289.1,421.9 289.1,420.7 	"/>
	<polygon class="st1" points="291.4,416 300.8,416 300.8,417.2 291.4,417.2 291.4,416 	"/>
	<polygon class="st1" points="295.5,420.7 296.7,420.7 296.7,421.9 295.5,421.9 295.5,420.7 	"/>
	<polygon class="st1" points="289.1,416 290.2,416 290.2,417.2 289.1,417.2 289.1,416 	"/>
	<polygon class="st1" points="301.3,430.1 302.5,430.1 302.5,431.2 301.3,431.2 301.3,430.1 	"/>
	<polygon class="st1" points="294.3,430.1 300.2,430.1 300.2,431.2 294.3,431.2 294.3,430.1 	"/>
	<polygon class="st1" points="296.1,406.7 297.3,406.7 297.3,407.9 296.1,407.9 296.1,406.7 	"/>
	<polygon class="st1" points="296.1,412.5 297.3,412.5 297.3,413.7 296.1,413.7 296.1,412.5 	"/>
	<polygon class="st1" points="293.8,408.1 294.6,407.3 295.4,408.1 294.6,409 293.8,408.1 	"/>
	<polygon class="st1" points="297.9,412.3 298.7,411.4 299.6,412.3 298.7,413.1 297.9,412.3 	"/>
	<polygon class="st1" points="293.2,409.6 294.3,409.6 294.3,410.8 293.2,410.8 293.2,409.6 	"/>
	<polygon class="st1" points="299,409.6 300.2,409.6 300.2,410.8 299,410.8 299,409.6 	"/>
	<polygon class="st1" points="293.8,412.3 294.6,411.4 295.4,412.3 294.6,413.1 293.8,412.3 	"/>
	<polygon class="st1" points="297.9,408.1 298.7,407.3 299.6,408.1 298.7,409 297.9,408.1 	"/>
</g>
</svg>
