<?xml version="1.0" encoding="utf-8"?>
<!-- Generator: Adobe Illustrator 20.1.0, SVG Export Plug-In . SVG Version: 6.00 Build 0)  -->
<svg version="1.1" id="Capa_1" xmlns="http://www.w3.org/2000/svg" xmlns:xlink="http://www.w3.org/1999/xlink" x="0px" y="0px"
	 viewBox="0 0 595.3 841.9" style="enable-background:new 0 0 595.3 841.9;" xml:space="preserve">
<style type="text/css">
	.st0{fill-rule:evenodd;clip-rule:evenodd;fill:#91B754;}
	.st1{fill-rule:evenodd;clip-rule:evenodd;fill:#FFFFFF;}
</style>
<g>
	<path class="st0" d="M328,420.9c0-16.6-13.4-30-30-30c-16.6,0-30,13.4-30,30c0,16.6,13.4,30,30,30C314.6,450.9,328,437.5,328,420.9
		L328,420.9z"/>
	<path class="st1" d="M310.6,408.2l-3.4,3.4v-5.3c0-1.6-1.3-2.9-2.9-2.9h-20.5c-1.6,0-2.9,1.3-2.9,2.9v2.3c0,0.3,0.3,0.6,0.6,0.6
		h4.1v25.7c0,1.9,1.6,3.5,3.5,3.5h20.5c1.9,0,3.5-1.6,3.5-3.5v-1.8c0-0.3-0.3-0.6-0.6-0.6h-5.3v-13.5l7.1-7.1c1-1,1-2.7,0-3.7
		C313.3,407.2,311.6,407.2,310.6,408.2L310.6,408.2L310.6,408.2z M285.6,408h-3.5v-1.8c0-1,0.8-1.8,1.8-1.8c1,0,1.8,0.8,1.8,1.8V408
		L285.6,408z M291.4,433.2v1.8c0,1.3-1,2.3-2.3,2.3c-1.3,0-2.3-1-2.3-2.3v-28.6c0-0.6-0.2-1.3-0.6-1.8h18.1c1,0,1.8,0.8,1.8,1.8v6.5
		l-8,8c0,0,0,0,0,0c0,0-0.1,0.1-0.1,0.2c0,0,0,0,0,0l0,0l-1.8,4.7c-0.1,0.3,0,0.6,0.3,0.8c0.1,0.1,0.3,0.1,0.4,0l4.7-1.8l0,0
		c0,0,0,0,0,0c0.1,0,0.1-0.1,0.2-0.1c0,0,0,0,0,0l4.3-4.3v12.3h-14C291.7,432.6,291.4,432.8,291.4,433.2L291.4,433.2z M298.7,422.3
		l1.6,1.6l-2.6,1L298.7,422.3L298.7,422.3z M311.9,433.7v1.2c0,1.3-1,2.3-2.3,2.3h-17.8c0.6-0.6,0.9-1.5,0.9-2.3v-1.2H311.9
		L311.9,433.7z M301.3,423.3l-2.1-2.1l8.8-8.8l2.1,2.1L301.3,423.3L301.3,423.3z M311,413.7l-2.1-2.1l0.9-0.9l2.1,2.1L311,413.7
		L311,413.7z M313.5,411.1l-0.8,0.8l-2.1-2.1l0.8-0.8c0.6-0.6,1.5-0.6,2.1,0C314.1,409.7,314.1,410.6,313.5,411.1L313.5,411.1
		L313.5,411.1z"/>
	<polygon class="st1" points="289.1,429.1 293.2,429.1 293.2,430.2 289.1,430.2 289.1,429.1 	"/>
	<polygon class="st1" points="289.1,424.4 294.9,424.4 294.9,425.6 289.1,425.6 289.1,424.4 	"/>
	<polygon class="st1" points="289.1,419.7 294.3,419.7 294.3,420.9 289.1,420.9 289.1,419.7 	"/>
	<polygon class="st1" points="291.4,415 300.8,415 300.8,416.2 291.4,416.2 291.4,415 	"/>
	<polygon class="st1" points="295.5,419.7 296.7,419.7 296.7,420.9 295.5,420.9 295.5,419.7 	"/>
	<polygon class="st1" points="289.1,415 290.2,415 290.2,416.2 289.1,416.2 289.1,415 	"/>
	<polygon class="st1" points="301.3,429.1 302.5,429.1 302.5,430.2 301.3,430.2 301.3,429.1 	"/>
	<polygon class="st1" points="294.3,429.1 300.2,429.1 300.2,430.2 294.3,430.2 294.3,429.1 	"/>
	<polygon class="st1" points="296.1,405.7 297.3,405.7 297.3,406.9 296.1,406.9 296.1,405.7 	"/>
	<polygon class="st1" points="296.1,411.5 297.3,411.5 297.3,412.7 296.1,412.7 296.1,411.5 	"/>
	<polygon class="st1" points="293.8,407.1 294.6,406.3 295.4,407.1 294.6,408 293.8,407.1 	"/>
	<polygon class="st1" points="297.9,411.3 298.7,410.4 299.6,411.3 298.7,412.1 297.9,411.3 	"/>
	<polygon class="st1" points="293.2,408.6 294.3,408.6 294.3,409.8 293.2,409.8 293.2,408.6 	"/>
	<polygon class="st1" points="299,408.6 300.2,408.6 300.2,409.8 299,409.8 299,408.6 	"/>
	<polygon class="st1" points="293.8,411.3 294.6,410.4 295.4,411.3 294.6,412.1 293.8,411.3 	"/>
	<polygon class="st1" points="297.9,407.1 298.7,406.3 299.6,407.1 298.7,408 297.9,407.1 	"/>
</g>
</svg>
