<?xml version="1.0" encoding="utf-8"?>
<!-- Generator: Adobe Illustrator 20.1.0, SVG Export Plug-In . SVG Version: 6.00 Build 0)  -->
<svg version="1.1" id="Capa_1" xmlns="http://www.w3.org/2000/svg" xmlns:xlink="http://www.w3.org/1999/xlink" x="0px" y="0px"
	 viewBox="0 0 595.3 841.9" style="enable-background:new 0 0 595.3 841.9;" xml:space="preserve">
<style type="text/css">
	.st0{fill-rule:evenodd;clip-rule:evenodd;fill:#98C253;}
</style>
<g>
	<path class="st0" d="M325.3,422.1c-1.9-1.6-4.7-1.5-6.4,0.4l-6.2,6.6l-0.4-1.2c-0.6-1.9-2.4-3.3-4.5-3.3h-9.4c-0.2,0-0.5,0-0.7-0.1
		c-0.3-0.1-0.6-0.3-0.9-0.5c-0.4-0.3-0.7-0.6-1.1-0.8l0,0l0,0c-4.5-3.9-11.2-3.9-15.6,0l-3.9,3.4l-0.5-0.2c-1.3-0.7-2.9-0.7-4.3-0.1
		l-4,2c-0.5,0.3-0.7,0.9-0.5,1.4l10.8,21.6c0.3,0.5,0.9,0.7,1.4,0.5l4-2c1.6-0.8,2.6-2.5,2.6-4.3l0-0.8h22.1c3.7,0,7.3-1.8,9.5-4.7
		l8.6-11.5C327.5,426.4,327.3,423.6,325.3,422.1L325.3,422.1z M282.4,447.9l-3,1.5l-9.9-19.7l3-1.5c1.3-0.6,2.8-0.1,3.4,1.1
		l7.6,15.2C284.1,445.7,283.6,447.3,282.4,447.9L282.4,447.9z M324.4,427.1l-8.6,11.5c-1.8,2.4-4.7,3.9-7.8,3.9h-23l-7.2-14.4
		l3.8-3.4c3.7-3.2,9.2-3.2,12.9,0c1.1,1,2.3,1.9,3.9,1.9c0.1,0,0.1,0,0.2,0h9.4c1.4,0,2.5,1.1,2.5,2.5c0,1.4-1.1,2.5-2.5,2.5h-9.2
		c-0.6,0-1.1,0.5-1.1,1.1s0.5,1.1,1.1,1.1h10.4c1.3,0,2.5-0.5,3.4-1.5l7.9-8.5c1-1,2.5-1.1,3.6-0.2
		C325,424.6,325.2,426.1,324.4,427.1L324.4,427.1z"/>
	<path class="st0" d="M303.6,402.9c1.1-1.2,1.8-2.8,1.8-4.5c0-3.6-2.9-6.6-6.5-6.6c-3.6,0-6.6,3-6.6,6.6c0,1.7,0.7,3.3,1.8,4.5
		l0.7,0.7l-0.8,0.5c-3.2,1.8-5.3,5.2-5.3,8.9v1.8c0,0.6,0.5,1.1,1.1,1.1h18.1c0.6,0,1.1-0.5,1.1-1.1V413c0-3.7-2-7.1-5.2-8.9
		l-0.8-0.5L303.6,402.9L303.6,402.9z M298.9,394c2.4,0,4.3,2.1,4.3,4.5c0,2.4-1.9,4.3-4.3,4.3c-2.4,0-4.5-1.9-4.5-4.3
		C294.5,396.1,296.5,394,298.9,394L298.9,394z M290.9,413c0-4.4,3.7-8.1,8.1-8.1c4.4,0,7.9,3.7,7.9,8.1v0.7h-16V413L290.9,413z"/>
</g>
</svg>
