<?xml version="1.0" encoding="utf-8"?>
<!-- Generator: Adobe Illustrator 20.1.0, SVG Export Plug-In . SVG Version: 6.00 Build 0)  -->
<svg version="1.1" id="Capa_1" xmlns="http://www.w3.org/2000/svg" xmlns:xlink="http://www.w3.org/1999/xlink" x="0px" y="0px"
	 viewBox="0 0 595.3 841.9" style="enable-background:new 0 0 595.3 841.9;" xml:space="preserve">
<style type="text/css">
	.st0{fill-rule:evenodd;clip-rule:evenodd;fill:#E6F6FC;}
	.st1{fill-rule:evenodd;clip-rule:evenodd;fill:#CAE5ED;}
	.st2{fill-rule:evenodd;clip-rule:evenodd;fill:#9BB8D1;}
	.st3{fill-rule:evenodd;clip-rule:evenodd;fill:#87D1EA;}
	.st4{fill-rule:evenodd;clip-rule:evenodd;fill:#5FA6CE;}
	.st5{fill-rule:evenodd;clip-rule:evenodd;fill:#3A4D7B;}
	.st6{fill-rule:evenodd;clip-rule:evenodd;fill:#C2F4FF;}
	.st7{fill-rule:evenodd;clip-rule:evenodd;fill:#FFCCA9;}
	.st8{fill-rule:evenodd;clip-rule:evenodd;fill:#FFA076;}
	.st9{fill-rule:evenodd;clip-rule:evenodd;fill:#FFDC61;}
	.st10{fill-rule:evenodd;clip-rule:evenodd;fill:#F7AD48;}
	.st11{fill-rule:evenodd;clip-rule:evenodd;fill:#FFEEA6;}
</style>
<g>
	<polygon class="st0" points="316.4,422.1 316.4,450.9 307.6,450.9 307.6,423.6 316.4,422.1 	"/>
	<polygon class="st1" points="313.8,422.6 313.8,450.9 316.4,450.9 316.4,422.1 313.8,422.6 	"/>
	<path class="st2" d="M316.4,422.1c0,1.9-1.6,3.5-3.5,3.5c-1.9,0-3.5-1.6-3.5-3.5c0-1.9,1.6-3.5,3.5-3.5
		C314.9,418.6,316.4,420.2,316.4,422.1L316.4,422.1z"/>
	<path class="st1" d="M309.7,421.5h3.2v4.2h-3.2c-1.2,0-2.1-0.9-2.1-2.1C307.6,422.4,308.6,421.5,309.7,421.5L309.7,421.5z"/>
	<path class="st3" d="M297.3,429.8h-5.7l-7.2,3.1c-4.5,2-7.4,6.4-7.4,11.3v6.2c0,0.3,0.2,0.5,0.5,0.5h34c0.3,0,0.5-0.2,0.5-0.5v-6.2
		c0-4.9-2.9-9.4-7.4-11.3L297.3,429.8L297.3,429.8z"/>
	<path class="st4" d="M304.5,432.9l-7.2-3.1h-2.9l7.2,3.1c4.5,2,7.4,6.4,7.4,11.3v6.2c0,0.3-0.2,0.5-0.5,0.5h2.9
		c0.3,0,0.5-0.2,0.5-0.5v-6.2C311.9,439.4,309,434.9,304.5,432.9L304.5,432.9z"/>
	<polygon class="st5" points="292.7,434.9 296.1,434.9 298.6,450.9 290.3,450.9 292.7,434.9 	"/>
	<path class="st6" d="M283.2,433.6l4.2,7.3c0.3,0.5,0.9,0.6,1.3,0.3l5.7-3.5v-7.8h-2.8c-7.7,3.4-7.4,3.2-8.3,3.7c0,0,0,0,0,0
		C283.3,433.5,283.2,433.5,283.2,433.6L283.2,433.6z"/>
	<path class="st6" d="M305.7,433.6l-4.2,7.3c-0.3,0.5-0.9,0.6-1.3,0.3l-5.7-3.5v-7.8h2.8c7.7,3.4,7.4,3.2,8.3,3.7c0,0,0,0,0,0
		C305.6,433.5,305.6,433.5,305.7,433.6L305.7,433.6z"/>
	<path class="st3" d="M301.6,432.9c1.2,0.5,2.3,1.2,3.3,2.1l0.9-1.5c0,0,0,0-0.1,0c0,0,0,0,0,0c0,0,0,0,0,0c0,0,0,0,0,0
		c-0.1,0-0.2-0.1-0.2-0.1c0,0,0,0-0.1,0c-0.1,0-0.2-0.1-0.3-0.1c-0.2-0.1-0.5-0.2-0.9-0.4l-1.7-0.7c-1.1-0.5-2.7-1.2-5.1-2.2h-2.8v0
		L301.6,432.9L301.6,432.9z"/>
	<polygon class="st7" points="289.6,422.3 289.6,431.9 294.4,437.6 299.3,431.9 299.3,422.3 289.6,422.3 	"/>
	<path class="st8" d="M289.6,428.3c2,1.4,4.4,2.2,7,2.2c0.9,0,1.8-0.1,2.7-0.3v-7.9h-9.7V428.3L289.6,428.3z"/>
	<path class="st7" d="M282.1,408v7.7c0,6.8,5.5,12.4,12.4,12.4s12.4-5.5,12.4-12.4V408H282.1L282.1,408z"/>
	<path class="st8" d="M303.8,408v7.7c0,6.3-4.8,11.5-10.9,12.3c0.5,0.1,1,0.1,1.5,0.1c6.8,0,12.4-5.5,12.4-12.4V408H303.8L303.8,408
		z"/>
	<path class="st9" d="M306.5,403.9V403c0-6.7-5.4-12.1-12.1-12.1c-6.7,0-12.1,5.4-12.1,12.1v0.9c0,0.1-0.1,0.3-0.3,0.3h-0.6
		c-0.7,0-1.3,0.6-1.3,1.3v3.9c0,0.2,0.2,0.4,0.4,0.4h27.6c0.2,0,0.4-0.2,0.4-0.4v-3.9c0-0.7-0.6-1.3-1.3-1.3h-0.6
		C306.7,404.2,306.5,404.1,306.5,403.9L306.5,403.9L306.5,403.9z"/>
	<path class="st10" d="M307.4,404.2h-0.6c-0.1,0-0.3-0.1-0.3-0.3V403c0-6.7-5.4-12.1-12.1-12.1c-0.5,0-1,0-1.5,0.1
		c6,0.7,10.6,5.8,10.6,12v0.9c0,0.1,0.1,0.3,0.3,0.3h0.6c0.7,0,1.3,0.6,1.3,1.3v4.3h2.7c0.2,0,0.4-0.2,0.4-0.4v-3.9
		C308.6,404.7,308.1,404.2,307.4,404.2L307.4,404.2z"/>
	<path class="st10" d="M288.7,400c0.1,0.4,0.5,0.7,0.9,0.7c0.1,0,0.1,0,0.2,0c0.5-0.1,0.8-0.6,0.7-1.1l-1.4-7.6
		c-0.6,0.3-1.1,0.6-1.7,1L288.7,400L288.7,400z"/>
	<path class="st10" d="M299.2,400.8c0.1,0,0.1,0,0.2,0c0.4,0,0.8-0.3,0.9-0.7l1.3-6.9c-0.5-0.4-1.1-0.7-1.7-1l-1.4,7.6
		C298.3,400.2,298.7,400.7,299.2,400.8L299.2,400.8L299.2,400.8z"/>
	<path class="st5" d="M308.6,448.3H302c-0.5,0-0.9-0.4-0.9-0.9c0-0.5,0.4-0.9,0.9-0.9h6.6c0.5,0,0.9,0.4,0.9,0.9
		C309.5,447.9,309.1,448.3,308.6,448.3L308.6,448.3z"/>
	<path class="st11" d="M297.3,404.2c0,1.6-1.3,2.8-2.8,2.8c-1.6,0-2.8-1.3-2.8-2.8c0-1.6,1.3-2.8,2.8-2.8
		C296,401.3,297.3,402.6,297.3,404.2L297.3,404.2z"/>
	<path class="st11" d="M283.9,413.5c7-0.7,14-0.7,21.1,0c1.6,0.2,3-1.1,3-2.7v-1.1h-27v1.1C280.9,412.4,282.3,413.6,283.9,413.5
		L283.9,413.5L283.9,413.5z"/>
</g>
</svg>
