<?xml version="1.0" encoding="utf-8"?>
<!-- Generator: Adobe Illustrator 20.1.0, SVG Export Plug-In . SVG Version: 6.00 Build 0)  -->
<svg version="1.1" id="Capa_1" xmlns="http://www.w3.org/2000/svg" xmlns:xlink="http://www.w3.org/1999/xlink" x="0px" y="0px"
	 viewBox="0 0 595.3 841.9" style="enable-background:new 0 0 595.3 841.9;" xml:space="preserve">
<style type="text/css">
	.st0{fill-rule:evenodd;clip-rule:evenodd;fill:#91B754;}
	.st1{fill-rule:evenodd;clip-rule:evenodd;fill:#FFFFFF;}
</style>
<g>
	<path class="st0" d="M327,420.9c0-16.6-13.4-30-30-30s-30,13.4-30,30c0,16.6,13.4,30,30,30S327,437.5,327,420.9L327,420.9z"/>
	<path class="st1" d="M312.9,421c-1.1-0.9-2.6-0.8-3.6,0.2l-3.5,3.7l-0.2-0.7c-0.3-1.1-1.4-1.8-2.5-1.8h-5.3c-0.1,0-0.3,0-0.4,0
		c-0.2-0.1-0.4-0.2-0.5-0.3c-0.2-0.1-0.4-0.3-0.6-0.5l0,0l0,0c-2.5-2.2-6.3-2.2-8.8,0l-2.2,1.9l-0.3-0.1c-0.8-0.4-1.6-0.4-2.4,0
		l-2.2,1.1c-0.3,0.1-0.4,0.5-0.3,0.8l6.1,12.1c0.1,0.3,0.5,0.4,0.8,0.3l2.2-1.1c0.9-0.5,1.5-1.4,1.4-2.4l0-0.4h12.4
		c2.1,0,4.1-1,5.3-2.7l4.9-6.5C314.1,423.4,314,421.9,312.9,421L312.9,421z M288.8,435.5l-1.7,0.9l-5.5-11.1l1.7-0.9
		c0.7-0.4,1.6-0.1,1.9,0.6l4.3,8.5C289.8,434.3,289.5,435.1,288.8,435.5L288.8,435.5z M312.4,423.8l-4.9,6.5c-1,1.4-2.7,2.2-4.4,2.2
		h-12.9l-4-8.1l2.2-1.9c2.1-1.8,5.2-1.8,7.2,0c0.6,0.6,1.3,1,2.2,1.1c0,0,0.1,0,0.1,0h5.3c0.8,0,1.4,0.6,1.4,1.4
		c0,0.8-0.6,1.4-1.4,1.4H298c-0.3,0-0.6,0.3-0.6,0.6s0.3,0.6,0.6,0.6h5.8c0.7,0,1.4-0.3,1.9-0.8l4.5-4.8c0.5-0.6,1.4-0.6,2-0.1
		C312.7,422.4,312.8,423.2,312.4,423.8L312.4,423.8z"/>
	<path class="st1" d="M300.7,410.2c0.6-0.7,1-1.6,1-2.5c0-2-1.6-3.7-3.6-3.7c-2,0-3.7,1.7-3.7,3.7c0,0.9,0.4,1.8,1,2.5l0.4,0.4
		l-0.5,0.3c-1.8,1-3,2.9-3,5v1c0,0.3,0.3,0.6,0.6,0.6h10.2c0.3,0,0.6-0.3,0.6-0.6v-1c0-2.1-1.1-4-2.9-5l-0.5-0.3L300.7,410.2
		L300.7,410.2z M298.1,405.2c1.4,0,2.4,1.2,2.4,2.5c0,1.3-1.1,2.4-2.4,2.4c-1.3,0-2.5-1.1-2.5-2.4
		C295.6,406.4,296.7,405.2,298.1,405.2L298.1,405.2z M293.5,415.9c0-2.5,2.1-4.5,4.5-4.5c2.5,0,4.5,2.1,4.5,4.5v0.4h-9V415.9
		L293.5,415.9z"/>
</g>
</svg>
