<?xml version="1.0" encoding="utf-8"?>
<!-- Generator: Adobe Illustrator 20.1.0, SVG Export Plug-In . SVG Version: 6.00 Build 0)  -->
<svg version="1.1" id="Capa_1" xmlns="http://www.w3.org/2000/svg" xmlns:xlink="http://www.w3.org/1999/xlink" x="0px" y="0px"
	 viewBox="0 0 595.3 841.9" style="enable-background:new 0 0 595.3 841.9;" xml:space="preserve">
<style type="text/css">
	.st0{fill-rule:evenodd;clip-rule:evenodd;fill:#8FE5DA;}
	.st1{fill-rule:evenodd;clip-rule:evenodd;fill:#589CED;}
	.st2{fill-rule:evenodd;clip-rule:evenodd;fill:#EA7180;}
	.st3{fill-rule:evenodd;clip-rule:evenodd;fill:#EFC929;}
	.st4{fill-rule:evenodd;clip-rule:evenodd;fill:#F4A55D;}
	.st5{fill-rule:evenodd;clip-rule:evenodd;fill:#F9BDEE;}
</style>
<g>
	<polygon class="st0" points="275,395 319.7,395 319.7,450.9 275,450.9 275,395 	"/>
	<polygon class="st1" points="277,441.7 315.7,441.7 315.7,443.8 277,443.8 277,441.7 	"/>
	<polygon class="st2" points="308.6,409.2 314.7,409.2 314.7,434.6 308.6,434.6 308.6,409.2 	"/>
	<polygon class="st2" points="288.2,390.9 304.5,390.9 304.5,400 288.2,400 288.2,390.9 	"/>
	<polygon class="st1" points="277,437.7 299.4,437.7 299.4,439.7 277,439.7 277,437.7 	"/>
	<polygon class="st1" points="301.4,437.7 315.7,437.7 315.7,439.7 301.4,439.7 301.4,437.7 	"/>
	<polygon class="st1" points="277,445.8 293.3,445.8 293.3,447.8 277,447.8 277,445.8 	"/>
	<polygon class="st1" points="295.3,445.8 315.7,445.8 315.7,447.8 295.3,447.8 295.3,445.8 	"/>
	<polygon class="st3" points="278.1,421.4 284.2,421.4 284.2,434.6 278.1,434.6 278.1,421.4 	"/>
	<polygon class="st4" points="288.2,417.3 294.3,417.3 294.3,434.6 288.2,434.6 288.2,417.3 	"/>
	<polygon class="st5" points="298.4,413.3 304.5,413.3 304.5,434.6 298.4,434.6 298.4,413.3 	"/>
	<path class="st1" d="M278.5,416.2l-0.8-1.9l7.1-3.1c0,0,0.1,0,0.1,0l10.1-3l9.1-4l10.2-4.1l0.8,1.9l-10.2,4.1l-9.1,4.1
		c0,0-0.1,0-0.1,0l-10.1,3L278.5,416.2L278.5,416.2z"/>
</g>
</svg>
